<svg width="228" height="60" viewBox="0 0 228 60" fill="none" xmlns="http://www.w3.org/2000/svg">
<path d="M103.938 18.677C103.94 22.0806 102.591 25.3459 100.188 27.7566C97.7855 30.1673 94.5246 31.5265 91.121 31.536H82.008L82 5.907L83.015 5.9C84.772 5.887 86.715 5.892 88.6 5.9C89.48 5.9 90.332 5.9 91.12 5.9C94.513 5.89813 97.7682 7.24237 100.171 9.63775C102.574 12.0331 103.929 15.284 103.938 18.677ZM101.902 18.677C101.894 15.8244 100.754 13.0917 98.7332 11.0782C96.7124 9.06482 93.9756 7.93513 91.123 7.937C90.334 7.937 89.48 7.937 88.598 7.937C87.075 7.937 85.515 7.93 84.044 7.937V29.5H91.12C93.9839 29.4913 96.7274 28.3468 98.7485 26.3178C100.77 24.2888 101.903 21.5409 101.901 18.677H101.902Z" fill="white"/>
<path d="M125.705 5.902V31.526H123.668V19.605H108.662V31.526H106.626V5.902H108.662V17.568H123.668V5.902H125.705Z" fill="white"/>
<path d="M151.412 31.526H149.201L143.965 19.139L139.904 9.532L135.735 19.393L130.606 31.526H128.397L133.463 19.538L133.588 19.238L133.859 18.596L138.959 6.53L138.965 6.517C138.973 6.498 138.985 6.481 138.995 6.463C139.013 6.42334 139.035 6.38492 139.058 6.348C139.076 6.321 139.097 6.299 139.117 6.274C139.137 6.249 139.159 6.22 139.184 6.195C139.21 6.17094 139.237 6.14824 139.265 6.127C139.288 6.10646 139.312 6.0871 139.337 6.069C139.374 6.04549 139.413 6.02445 139.453 6.006C139.472 5.997 139.488 5.985 139.507 5.976H139.513C139.563 5.95598 139.615 5.93993 139.668 5.928C139.681 5.928 139.693 5.919 139.706 5.917C139.813 5.89747 139.922 5.89511 140.029 5.91C140.053 5.91 140.077 5.91 140.1 5.917C140.123 5.924 140.14 5.93 140.16 5.935C140.205 5.94574 140.25 5.95943 140.293 5.976H140.3C140.321 5.985 140.339 5.998 140.359 6.008C140.397 6.02554 140.434 6.04559 140.47 6.068C140.497 6.086 140.52 6.107 140.544 6.127C140.568 6.147 140.598 6.169 140.623 6.193C140.647 6.21848 140.67 6.24519 140.691 6.273C140.712 6.29622 140.731 6.32059 140.749 6.346C140.772 6.38291 140.793 6.42133 140.812 6.461C140.821 6.48 140.834 6.496 140.842 6.516L140.848 6.529L145.842 18.342L151.412 31.526Z" fill="white"/>
<path d="M170.932 31.104L155.732 10.068V31.526H153.695V6.92C153.694 6.70424 153.762 6.49372 153.888 6.31883C154.014 6.14394 154.193 6.01372 154.398 5.94696C154.603 5.8802 154.824 5.88036 155.029 5.94741C155.235 6.01445 155.413 6.14493 155.539 6.32L170.739 27.356V5.931H172.775V30.508C172.776 30.7238 172.709 30.9343 172.582 31.1092C172.456 31.2841 172.277 31.4143 172.072 31.481C171.867 31.5478 171.646 31.5476 171.441 31.4806C171.236 31.4135 171.057 31.2831 170.931 31.108L170.932 31.104Z" fill="white"/>
<path d="M198.462 31.526H196.251L191.015 19.139L186.954 9.532L182.786 19.393L177.656 31.526H175.447L180.513 19.538L180.637 19.238L180.908 18.596L186.008 6.53L186.013 6.517C186.021 6.498 186.034 6.481 186.043 6.463C186.061 6.42328 186.082 6.38486 186.106 6.348C186.124 6.32232 186.144 6.29762 186.165 6.274C186.206 6.21712 186.256 6.16744 186.313 6.127C186.337 6.108 186.359 6.087 186.385 6.069C186.422 6.04543 186.461 6.02438 186.501 6.006C186.52 5.997 186.536 5.985 186.555 5.976H186.561C186.611 5.95595 186.663 5.9399 186.716 5.928C186.728 5.928 186.741 5.919 186.753 5.917C186.86 5.89747 186.969 5.89511 187.076 5.91C187.1 5.91 187.124 5.91 187.147 5.917C187.17 5.924 187.187 5.93 187.207 5.935C187.252 5.94571 187.297 5.95941 187.34 5.976H187.347C187.368 5.985 187.386 5.998 187.406 6.008C187.444 6.02561 187.481 6.04565 187.517 6.068C187.543 6.086 187.567 6.107 187.591 6.127C187.615 6.147 187.645 6.169 187.669 6.193C187.693 6.217 187.715 6.246 187.737 6.273C187.759 6.3 187.778 6.32 187.795 6.346C187.819 6.38285 187.84 6.42127 187.858 6.461C187.867 6.48 187.879 6.496 187.888 6.516L187.894 6.529L192.888 18.342L198.462 31.526Z" fill="white"/>
<path d="M217.981 31.104L202.781 10.068V31.526H200.744V6.92C200.743 6.70424 200.811 6.49372 200.937 6.31883C201.063 6.14394 201.242 6.01372 201.447 5.94696C201.652 5.8802 201.873 5.88036 202.078 5.94741C202.283 6.01445 202.462 6.14493 202.588 6.32L217.788 27.356V5.931H219.825V30.508C219.826 30.7238 219.759 30.9343 219.632 31.1092C219.506 31.2841 219.327 31.4143 219.122 31.481C218.917 31.5478 218.696 31.5476 218.491 31.4806C218.286 31.4135 218.107 31.2831 217.981 31.108V31.104Z" fill="white"/>
<path d="M225.427 31.526V5.902H227.463V31.526H225.427Z" fill="white"/>
<path d="M84.8818 44.7344V46.2896L84.8882 47.1846C84.8882 47.7432 84.8945 48.1515 84.9072 48.4097C85.5251 48.4562 86.1873 48.4795 86.894 48.4795C87.368 48.4795 87.7658 48.4583 88.0874 48.416C88.2948 48.3906 88.5148 48.3356 88.7476 48.251C88.8534 47.8786 88.9613 47.4131 89.0713 46.8545H89.4966C89.3823 47.7812 89.3252 48.3991 89.3252 48.708L89.3379 48.9937C88.8512 49.0402 88.373 49.0635 87.9033 49.0635L86.9067 49.0444C85.8065 49.0148 84.9982 49 84.4819 49C83.9868 49 83.3288 49.0148 82.5078 49.0444V48.6445H82.7046C83.0728 48.6445 83.3034 48.6086 83.3965 48.5366C83.4938 48.4647 83.5573 48.2954 83.5869 48.0288C83.6208 47.7622 83.6377 47.174 83.6377 46.2642V42.7793C83.6377 42.208 83.6229 41.7404 83.5933 41.3765C83.5679 41.0125 83.5382 40.7967 83.5044 40.729C83.4748 40.6571 83.4303 40.6021 83.3711 40.564C83.3118 40.5259 83.1299 40.492 82.8252 40.4624L82.3364 40.4116V40.0181H83.022L83.6948 40.0371C84.0715 40.0498 84.3571 40.0562 84.5518 40.0562L86.9893 40.0244L88.1445 40.0181C88.5381 40.0138 88.9359 40.0308 89.3379 40.0688C89.1771 40.5682 89.0882 41.2178 89.0713 42.0176H88.6396C88.6396 41.5521 88.6164 41.1649 88.5698 40.856C88.0705 40.6698 87.4569 40.5767 86.729 40.5767C86.1493 40.5767 85.542 40.6021 84.9072 40.6528C84.9115 41.0506 84.9072 41.4484 84.8945 41.8462L84.8818 42.8237V44.1123C85.3008 44.1377 85.6711 44.1504 85.9927 44.1504C86.9998 44.1504 87.569 44.1165 87.7002 44.0488C87.8356 43.9769 87.9033 43.759 87.9033 43.395V42.9824H88.335C88.3053 43.6214 88.2905 44.1313 88.2905 44.5122C88.2905 44.9142 88.3053 45.3882 88.335 45.9341H87.9033V45.5659C87.9033 45.1597 87.8229 44.9121 87.6621 44.8232C87.5055 44.7301 86.9469 44.6836 85.9863 44.6836C85.6309 44.6836 85.2627 44.7005 84.8818 44.7344ZM94.965 43.9346C95.8748 43.9938 96.5307 44.2054 96.9327 44.5693C97.3348 44.929 97.5358 45.4284 97.5358 46.0674C97.5358 46.8757 97.1972 47.5739 96.5201 48.1621C95.8473 48.7461 94.9904 49.0381 93.9493 49.0381L93.4479 49.0254C93.0247 49.0085 92.6671 49 92.3751 49C92.1635 49 91.9033 49.0085 91.5944 49.0254L91.0675 49.0444V48.7588C91.3299 48.6318 91.4843 48.5345 91.5309 48.4668C91.5817 48.3991 91.6113 48.2869 91.6197 48.1304C91.6494 47.6268 91.6642 47.0534 91.6642 46.4102V42.4556C91.6642 41.3976 91.6261 40.7988 91.5499 40.6592C91.4568 40.4941 91.2304 40.4116 90.8707 40.4116H90.4391V40.0181H90.9659L91.5499 40.0371C91.8546 40.0498 92.0937 40.0562 92.2672 40.0562C92.5338 40.0562 93.0607 40.0456 93.8478 40.0244L94.7745 40.0054C95.5024 40.0054 96.0462 40.1323 96.4059 40.3862C96.8587 40.7078 97.0851 41.1628 97.0851 41.751C97.0851 42.2334 96.9243 42.6566 96.6027 43.0205C96.2853 43.3844 95.7394 43.6891 94.965 43.9346ZM92.8575 43.7568C93.0691 43.7695 93.2638 43.7759 93.4415 43.7759C94.2836 43.7759 94.8867 43.6278 95.2506 43.3315C95.6145 43.0311 95.7965 42.5994 95.7965 42.0366C95.7965 41.55 95.6442 41.1776 95.3395 40.9194C95.0348 40.6571 94.5481 40.5259 93.8795 40.5259C93.5833 40.5259 93.2617 40.5534 92.9147 40.6084C92.8766 41.1247 92.8575 41.9054 92.8575 42.9507V43.7568ZM92.8575 48.4033C93.2511 48.4626 93.5769 48.4922 93.8351 48.4922C94.5841 48.4922 95.1639 48.2933 95.5743 47.8955C95.989 47.4935 96.1964 46.9497 96.1964 46.2642C96.1964 45.8071 96.1054 45.4305 95.9235 45.1343C95.7415 44.8338 95.4855 44.6159 95.1554 44.4805C94.8295 44.3408 94.3069 44.271 93.5875 44.271C93.3717 44.271 93.1284 44.2773 92.8575 44.29V46.5435L92.8639 47.3433C92.8766 47.631 92.8829 47.8511 92.8829 48.0034C92.8829 48.1177 92.8745 48.251 92.8575 48.4033ZM98.51 46.4673L98.4275 46.3784C98.5544 46.0568 98.6623 45.75 98.7512 45.458C99.369 45.4876 99.8832 45.5024 100.294 45.5024C100.632 45.5024 101.254 45.4876 102.16 45.458L102.211 45.5532C102.071 45.8748 101.967 46.1795 101.9 46.4673C101.32 46.4292 100.787 46.4102 100.3 46.4102C99.7541 46.4102 99.1575 46.4292 98.51 46.4673ZM102.766 47.0957L103.09 46.9116L103.248 47.1973C103.536 47.7135 103.727 48.0161 103.82 48.105C103.942 48.2277 104.129 48.3314 104.378 48.416C104.632 48.5007 104.924 48.543 105.254 48.543C105.961 48.543 106.511 48.3377 106.905 47.9272C107.302 47.5125 107.501 46.918 107.501 46.1436C107.501 45.4665 107.317 44.9354 106.949 44.5503C106.585 44.161 106.103 43.9663 105.502 43.9663C105.155 43.9663 104.844 44.034 104.569 44.1694C104.294 44.3049 104.05 44.5164 103.839 44.8042L103.566 44.7153C103.625 43.979 103.655 43.0396 103.655 41.897C103.655 41.1818 103.625 40.5597 103.566 40.0308L103.674 39.9673C104.338 40.0265 105.019 40.0562 105.718 40.0562C106.564 40.0562 107.376 40.0265 108.155 39.9673L108.231 40.0308C108.193 40.2424 108.174 40.4074 108.174 40.5259C108.174 40.6359 108.193 40.8073 108.231 41.04L108.155 41.1099C107.673 41.0845 107.209 41.0718 106.765 41.0718C105.876 41.0718 105.028 41.0845 104.22 41.1099C104.182 41.4315 104.148 42.3117 104.118 43.7505C104.431 43.505 104.73 43.3337 105.013 43.2363C105.297 43.1348 105.62 43.084 105.984 43.084C106.771 43.084 107.404 43.3188 107.882 43.7886C108.365 44.2583 108.606 44.8698 108.606 45.623C108.606 46.5667 108.227 47.394 107.47 48.105C106.716 48.8159 105.823 49.1714 104.791 49.1714C104.529 49.1714 104.3 49.146 104.105 49.0952C103.915 49.0487 103.691 48.9556 103.432 48.8159C103.361 48.5705 103.297 48.3758 103.242 48.2319L102.766 47.0957ZM113.011 48.6445H113.411C113.804 48.6445 114.039 48.5493 114.115 48.3589C114.196 48.1685 114.236 47.2565 114.236 45.623V43.4712C114.236 41.7785 114.202 40.8454 114.134 40.6719C114.067 40.4984 113.864 40.4116 113.525 40.4116H113.011V40.0117C113.713 40.0413 114.407 40.0562 115.093 40.0562C115.664 40.0562 116.183 40.0413 116.648 40.0117V40.4116H116.159C115.859 40.4116 115.671 40.4476 115.594 40.5195C115.518 40.5915 115.474 40.7734 115.461 41.0654C115.44 41.5182 115.429 42.3244 115.429 43.4839V45.6738C115.429 47.32 115.465 48.2277 115.537 48.397C115.609 48.562 115.84 48.6445 116.229 48.6445H116.648V49.0444C116.128 49.0148 115.56 49 114.947 49C114.232 49 113.586 49.0148 113.011 49.0444V48.6445ZM119.228 41.4463V45.8325C119.228 46.8312 119.247 47.5273 119.285 47.9209C119.315 48.2214 119.364 48.4054 119.431 48.4731C119.503 48.5366 119.706 48.5832 120.041 48.6128L120.447 48.6445V49.0444C119.986 49.0148 119.569 49 119.197 49C118.938 49 118.346 49.0148 117.419 49.0444V48.6445H117.876C118.151 48.6445 118.331 48.6064 118.416 48.5303C118.5 48.4541 118.553 48.3039 118.574 48.0796C118.621 47.6141 118.644 46.9814 118.644 46.1816V43.0269C118.644 42.4344 118.638 41.8483 118.625 41.2686C118.617 41.0231 118.583 40.856 118.524 40.7671C118.469 40.674 118.386 40.5915 118.276 40.5195C118.166 40.4476 118.012 40.4116 117.813 40.4116H117.419V40.0117C117.957 40.0413 118.367 40.0562 118.651 40.0562C118.955 40.0562 119.29 40.0413 119.654 40.0117C120.072 40.5238 120.466 41.0231 120.834 41.5098C121.207 41.9922 121.592 42.4788 121.989 42.9697L124.16 45.6357C124.943 46.5921 125.508 47.2565 125.855 47.6289V43.5537C125.855 41.8483 125.823 40.9173 125.76 40.7607C125.701 40.5999 125.457 40.4984 125.03 40.4561L124.554 40.4116V40.0117C125.235 40.0413 125.764 40.0562 126.141 40.0562C126.534 40.0562 127.042 40.0413 127.664 40.0117V40.4116H127.176C126.782 40.4116 126.556 40.5428 126.496 40.8052C126.458 40.9787 126.439 41.9054 126.439 43.5854V46.4482C126.439 47.2184 126.473 48.1388 126.541 49.2095C125.965 49.1206 125.631 49.055 125.538 49.0127C125.445 48.9746 125.356 48.909 125.271 48.8159C124.801 48.2954 124.308 47.7178 123.792 47.083L119.228 41.4463ZM132.726 40.5894C132.68 41.2241 132.657 41.8927 132.657 42.5952V46.2134C132.657 47.5591 132.69 48.3018 132.758 48.4414C132.826 48.5768 133.067 48.6445 133.482 48.6445H133.958V49.0444C133.209 49.0148 132.574 49 132.054 49C131.529 49 130.898 49.0148 130.162 49.0444V48.6445H130.695C130.974 48.6445 131.156 48.6086 131.241 48.5366C131.326 48.4604 131.379 48.3145 131.4 48.0986C131.442 47.6035 131.463 46.9645 131.463 46.1816V42.5571C131.463 41.842 131.448 41.186 131.419 40.5894H130.771C129.726 40.5894 129.151 40.6147 129.045 40.6655C128.939 40.7121 128.869 40.9004 128.835 41.2305L128.746 42.0811H128.347L128.359 41.3257C128.359 41.021 128.334 40.583 128.283 40.0117C130.568 40.0413 131.912 40.0562 132.314 40.0562L135.824 40.0117C135.744 40.7269 135.697 41.4167 135.684 42.0811H135.291L135.227 41.2495C135.202 40.9618 135.166 40.7925 135.119 40.7417C135.073 40.6867 134.969 40.6528 134.808 40.6401C134.343 40.6063 133.814 40.5894 133.222 40.5894H132.726ZM139.052 44.7344V46.2896L139.058 47.1846C139.058 47.7432 139.064 48.1515 139.077 48.4097C139.695 48.4562 140.357 48.4795 141.064 48.4795C141.538 48.4795 141.936 48.4583 142.257 48.416C142.465 48.3906 142.685 48.3356 142.917 48.251C143.023 47.8786 143.131 47.4131 143.241 46.8545H143.666C143.552 47.7812 143.495 48.3991 143.495 48.708L143.508 48.9937C143.021 49.0402 142.543 49.0635 142.073 49.0635L141.077 49.0444C139.976 49.0148 139.168 49 138.652 49C138.157 49 137.499 49.0148 136.678 49.0444V48.6445H136.874C137.243 48.6445 137.473 48.6086 137.566 48.5366C137.664 48.4647 137.727 48.2954 137.757 48.0288C137.791 47.7622 137.808 47.174 137.808 46.2642V42.7793C137.808 42.208 137.793 41.7404 137.763 41.3765C137.738 41.0125 137.708 40.7967 137.674 40.729C137.645 40.6571 137.6 40.6021 137.541 40.564C137.482 40.5259 137.3 40.492 136.995 40.4624L136.506 40.4116V40.0181H137.192L137.865 40.0371C138.241 40.0498 138.527 40.0562 138.722 40.0562L141.159 40.0244L142.314 40.0181C142.708 40.0138 143.106 40.0308 143.508 40.0688C143.347 40.5682 143.258 41.2178 143.241 42.0176H142.81C142.81 41.5521 142.786 41.1649 142.74 40.856C142.24 40.6698 141.627 40.5767 140.899 40.5767C140.319 40.5767 139.712 40.6021 139.077 40.6528C139.081 41.0506 139.077 41.4484 139.064 41.8462L139.052 42.8237V44.1123C139.471 44.1377 139.841 44.1504 140.163 44.1504C141.17 44.1504 141.739 44.1165 141.87 44.0488C142.005 43.9769 142.073 43.759 142.073 43.395V42.9824H142.505C142.475 43.6214 142.46 44.1313 142.46 44.5122C142.46 44.9142 142.475 45.3882 142.505 45.9341H142.073V45.5659C142.073 45.1597 141.993 44.9121 141.832 44.8232C141.675 44.7301 141.117 44.6836 140.156 44.6836C139.801 44.6836 139.433 44.7005 139.052 44.7344ZM149.255 44.4614C149.67 45.0581 150.184 45.7521 150.798 46.5435L152.017 48.124C152.232 48.3949 152.376 48.5493 152.448 48.5874C152.52 48.6255 152.594 48.6445 152.67 48.6445H152.836V49.0444C152.484 49.0148 152.177 49 151.915 49C151.674 49 151.42 49.0148 151.153 49.0444L148.906 46.0103C148.487 45.4517 148.039 44.9058 147.561 44.3726L147.624 44.1567C147.87 44.1779 148.052 44.1885 148.17 44.1885C148.877 44.1885 149.429 44.0065 149.827 43.6426C150.229 43.2786 150.43 42.792 150.43 42.1826C150.43 41.6367 150.26 41.2114 149.922 40.9067C149.583 40.5978 149.095 40.4434 148.456 40.4434C148.011 40.4434 147.565 40.5259 147.116 40.6909C147.066 41.3638 147.04 42.0832 147.04 42.8491V45.915C147.04 47.4089 147.076 48.2383 147.148 48.4033C147.22 48.5641 147.453 48.6445 147.846 48.6445H148.341V49.0444C147.639 49.0148 147.057 49 146.596 49C146.232 49 145.574 49.0148 144.622 49.0444V48.6445H145.098C145.462 48.6445 145.677 48.5662 145.745 48.4097C145.813 48.2489 145.847 47.4131 145.847 45.9023V42.8491C145.847 41.5373 145.807 40.8031 145.726 40.6465C145.65 40.4899 145.396 40.4116 144.964 40.4116H144.622V40.0054C145.409 40.0392 146.01 40.0562 146.424 40.0562C146.704 40.0562 147.106 40.0456 147.63 40.0244C148.24 40.0033 148.678 39.9927 148.944 39.9927C149.677 39.9927 150.231 40.071 150.607 40.2275C150.988 40.3799 151.276 40.6021 151.471 40.894C151.67 41.186 151.769 41.5352 151.769 41.9414C151.769 42.5381 151.553 43.0649 151.122 43.522C150.694 43.979 150.072 44.2922 149.255 44.4614ZM155.155 41.4463V45.8325C155.155 46.8312 155.175 47.5273 155.213 47.9209C155.242 48.2214 155.291 48.4054 155.359 48.4731C155.431 48.5366 155.634 48.5832 155.968 48.6128L156.374 48.6445V49.0444C155.913 49.0148 155.496 49 155.124 49C154.866 49 154.273 49.0148 153.346 49.0444V48.6445H153.803C154.078 48.6445 154.258 48.6064 154.343 48.5303C154.428 48.4541 154.481 48.3039 154.502 48.0796C154.548 47.6141 154.571 46.9814 154.571 46.1816V43.0269C154.571 42.4344 154.565 41.8483 154.552 41.2686C154.544 41.0231 154.51 40.856 154.451 40.7671C154.396 40.674 154.313 40.5915 154.203 40.5195C154.093 40.4476 153.939 40.4116 153.74 40.4116H153.346V40.0117C153.884 40.0413 154.294 40.0562 154.578 40.0562C154.883 40.0562 155.217 40.0413 155.581 40.0117C156 40.5238 156.393 41.0231 156.761 41.5098C157.134 41.9922 157.519 42.4788 157.917 42.9697L160.088 45.6357C160.87 46.5921 161.435 47.2565 161.782 47.6289V43.5537C161.782 41.8483 161.751 40.9173 161.687 40.7607C161.628 40.5999 161.385 40.4984 160.957 40.4561L160.481 40.4116V40.0117C161.162 40.0413 161.691 40.0562 162.068 40.0562C162.462 40.0562 162.969 40.0413 163.592 40.0117V40.4116H163.103C162.709 40.4116 162.483 40.5428 162.424 40.8052C162.385 40.9787 162.366 41.9054 162.366 43.5854V46.4482C162.366 47.2184 162.4 48.1388 162.468 49.2095C161.892 49.1206 161.558 49.055 161.465 49.0127C161.372 48.9746 161.283 48.909 161.198 48.8159C160.729 48.2954 160.236 47.7178 159.719 47.083L155.155 41.4463ZM170.653 45.9976H166.984L166.553 47.0195C166.269 47.6966 166.127 48.1113 166.127 48.2637C166.127 48.361 166.153 48.4308 166.203 48.4731C166.258 48.5155 166.394 48.5493 166.61 48.5747L167.219 48.6445V49.0444C166.813 49.0148 166.356 49 165.848 49C165.239 49 164.703 49.0148 164.242 49.0444V48.6445L164.432 48.6382C164.729 48.6297 164.919 48.6001 165.004 48.5493C165.093 48.4943 165.186 48.3631 165.283 48.1558C165.583 47.5464 165.89 46.8883 166.203 46.1816L167.949 42.2271C168.415 41.1776 168.732 40.4159 168.901 39.9419H169.333L172.545 47.4131C172.761 47.9209 172.904 48.2277 172.976 48.3335C173.048 48.4351 173.131 48.5091 173.224 48.5557C173.317 48.598 173.527 48.6276 173.852 48.6445V49.0444C173.302 49.0148 172.777 49 172.278 49C171.813 49 171.193 49.0148 170.418 49.0444V48.6445L171.047 48.6064C171.271 48.5895 171.404 48.5662 171.447 48.5366C171.51 48.4901 171.542 48.4308 171.542 48.3589C171.542 48.2827 171.478 48.0838 171.351 47.7622L170.653 45.9976ZM167.219 45.4771H170.418L168.819 41.6558L167.219 45.4771ZM178.902 40.5894C178.855 41.2241 178.832 41.8927 178.832 42.5952V46.2134C178.832 47.5591 178.866 48.3018 178.934 48.4414C179.001 48.5768 179.242 48.6445 179.657 48.6445H180.133V49.0444C179.384 49.0148 178.749 49 178.229 49C177.704 49 177.074 49.0148 176.337 49.0444V48.6445H176.871C177.15 48.6445 177.332 48.6086 177.416 48.5366C177.501 48.4604 177.554 48.3145 177.575 48.0986C177.617 47.6035 177.639 46.9645 177.639 46.1816V42.5571C177.639 41.842 177.624 41.186 177.594 40.5894H176.947C175.901 40.5894 175.326 40.6147 175.22 40.6655C175.114 40.7121 175.045 40.9004 175.011 41.2305L174.922 42.0811H174.522L174.535 41.3257C174.535 41.021 174.509 40.583 174.458 40.0117C176.744 40.0413 178.087 40.0562 178.489 40.0562L181.999 40.0117C181.919 40.7269 181.872 41.4167 181.86 42.0811H181.466L181.403 41.2495C181.377 40.9618 181.341 40.7925 181.295 40.7417C181.248 40.6867 181.145 40.6528 180.984 40.6401C180.518 40.6063 179.989 40.5894 179.397 40.5894H178.902ZM182.732 48.6445H183.132C183.526 48.6445 183.761 48.5493 183.837 48.3589C183.917 48.1685 183.958 47.2565 183.958 45.623V43.4712C183.958 41.7785 183.924 40.8454 183.856 40.6719C183.788 40.4984 183.585 40.4116 183.247 40.4116H182.732V40.0117C183.435 40.0413 184.129 40.0562 184.815 40.0562C185.386 40.0562 185.904 40.0413 186.37 40.0117V40.4116H185.881C185.58 40.4116 185.392 40.4476 185.316 40.5195C185.24 40.5915 185.195 40.7734 185.183 41.0654C185.162 41.5182 185.151 42.3244 185.151 43.4839V45.6738C185.151 47.32 185.187 48.2277 185.259 48.397C185.331 48.562 185.561 48.6445 185.951 48.6445H186.37V49.0444C185.849 49.0148 185.282 49 184.669 49C183.953 49 183.308 49.0148 182.732 49.0444V48.6445ZM187.153 44.5249C187.153 43.1326 187.602 42.0112 188.499 41.1606C189.396 40.3101 190.592 39.8848 192.086 39.8848C193.55 39.8848 194.697 40.2804 195.526 41.0718C196.36 41.8589 196.777 42.9062 196.777 44.2139C196.777 45.623 196.294 46.8016 195.329 47.7495C194.364 48.6974 193.148 49.1714 191.679 49.1714C190.761 49.1714 189.97 48.9852 189.305 48.6128C188.641 48.2404 188.116 47.6966 187.731 46.9814C187.346 46.2663 187.153 45.4474 187.153 44.5249ZM188.442 44.0044C188.442 44.9608 188.605 45.7944 188.931 46.5054C189.261 47.2121 189.701 47.7432 190.251 48.0986C190.801 48.4499 191.43 48.6255 192.136 48.6255C192.792 48.6255 193.366 48.4753 193.857 48.1748C194.348 47.8743 194.733 47.4258 195.012 46.8291C195.295 46.2324 195.437 45.5067 195.437 44.6519C195.437 43.7547 195.281 42.9888 194.967 42.354C194.659 41.715 194.233 41.2347 193.692 40.9131C193.15 40.5915 192.509 40.4307 191.768 40.4307C191.091 40.4307 190.507 40.5724 190.016 40.856C189.525 41.1395 189.14 41.5563 188.861 42.1064C188.582 42.6523 188.442 43.285 188.442 44.0044ZM199.3 41.4463V45.8325C199.3 46.8312 199.319 47.5273 199.357 47.9209C199.386 48.2214 199.435 48.4054 199.503 48.4731C199.575 48.5366 199.778 48.5832 200.112 48.6128L200.518 48.6445V49.0444C200.057 49.0148 199.64 49 199.268 49C199.01 49 198.417 49.0148 197.491 49.0444V48.6445H197.948C198.223 48.6445 198.402 48.6064 198.487 48.5303C198.572 48.4541 198.625 48.3039 198.646 48.0796C198.692 47.6141 198.716 46.9814 198.716 46.1816V43.0269C198.716 42.4344 198.709 41.8483 198.697 41.2686C198.688 41.0231 198.654 40.856 198.595 40.7671C198.54 40.674 198.457 40.5915 198.347 40.5195C198.237 40.4476 198.083 40.4116 197.884 40.4116H197.491V40.0117C198.028 40.0413 198.438 40.0562 198.722 40.0562C199.027 40.0562 199.361 40.0413 199.725 40.0117C200.144 40.5238 200.537 41.0231 200.906 41.5098C201.278 41.9922 201.663 42.4788 202.061 42.9697L204.232 45.6357C205.015 46.5921 205.58 47.2565 205.927 47.6289V43.5537C205.927 41.8483 205.895 40.9173 205.831 40.7607C205.772 40.5999 205.529 40.4984 205.101 40.4561L204.625 40.4116V40.0117C205.307 40.0413 205.836 40.0562 206.212 40.0562C206.606 40.0562 207.114 40.0413 207.736 40.0117V40.4116H207.247C206.853 40.4116 206.627 40.5428 206.568 40.8052C206.53 40.9787 206.511 41.9054 206.511 43.5854V46.4482C206.511 47.2184 206.544 48.1388 206.612 49.2095C206.037 49.1206 205.702 49.055 205.609 49.0127C205.516 48.9746 205.427 48.909 205.343 48.8159C204.873 48.2954 204.38 47.7178 203.864 47.083L199.3 41.4463ZM214.797 45.9976H211.128L210.697 47.0195C210.413 47.6966 210.271 48.1113 210.271 48.2637C210.271 48.361 210.297 48.4308 210.348 48.4731C210.403 48.5155 210.538 48.5493 210.754 48.5747L211.363 48.6445V49.0444C210.957 49.0148 210.5 49 209.992 49C209.383 49 208.847 49.0148 208.386 49.0444V48.6445L208.577 48.6382C208.873 48.6297 209.063 48.6001 209.148 48.5493C209.237 48.4943 209.33 48.3631 209.427 48.1558C209.728 47.5464 210.034 46.8883 210.348 46.1816L212.093 42.2271C212.559 41.1776 212.876 40.4159 213.045 39.9419H213.477L216.689 47.4131C216.905 47.9209 217.049 48.2277 217.121 48.3335C217.192 48.4351 217.275 48.5091 217.368 48.5557C217.461 48.598 217.671 48.6276 217.997 48.6445V49.0444C217.446 49.0148 216.922 49 216.422 49C215.957 49 215.337 49.0148 214.562 49.0444V48.6445L215.191 48.6064C215.415 48.5895 215.548 48.5662 215.591 48.5366C215.654 48.4901 215.686 48.4308 215.686 48.3589C215.686 48.2827 215.622 48.0838 215.496 47.7622L214.797 45.9976ZM211.363 45.4771H214.562L212.963 41.6558L211.363 45.4771ZM221.205 48.4224C221.62 48.4435 222.024 48.4541 222.418 48.4541C223.213 48.4541 223.835 48.4329 224.284 48.3906C224.597 48.3568 224.921 48.2954 225.255 48.2065L225.636 46.7148H226.048C225.943 47.5146 225.86 48.2616 225.801 48.9556C225.42 49.019 224.899 49.0508 224.239 49.0508L221.218 49C220.812 49 220.179 49.0233 219.32 49.0698V48.7334C219.658 48.5853 219.857 48.4266 219.917 48.2573C219.98 48.0881 220.012 47.4173 220.012 46.2451V42.7539C220.012 41.4844 219.98 40.7777 219.917 40.6338C219.857 40.4857 219.686 40.4116 219.402 40.4116H218.71V40.0117C219.718 40.0413 220.386 40.0562 220.716 40.0562C221.156 40.0562 221.753 40.0413 222.506 40.0117V40.4116H221.719C221.495 40.4116 221.353 40.4772 221.294 40.6084C221.235 40.7354 221.205 41.2707 221.205 42.2144V46.2578L221.224 48.0479L221.205 48.4224Z" fill="white"/>
<path d="M13.9265 47.317L19.606 53.0573L36.941 35.9256V24.4752L13.9265 47.317Z" fill="#71B078"/>
<path d="M59.9543 47.317L54.2759 53.0573L36.9409 35.9256V24.4752L59.9543 47.317Z" fill="#009548"/>
<path d="M2.48059 35.7498L8.00856 41.3866L36.941 12.7901V1.10489L2.48059 35.7498Z" fill="#89C981"/>
<path d="M71.4013 35.7498L65.8733 41.3866L36.9409 12.7901V1.10489L71.4013 35.7498Z" fill="#3BB44A"/>
<path d="M36.9409 46.4948V57.1819H26.1201L36.9409 46.4948Z" fill="#638D6B"/>
<path d="M36.9409 46.4948V57.1819H47.7606L36.9409 46.4948Z" fill="#0E6A39"/>
</svg>
