<svg xmlns="http://www.w3.org/2000/svg" width="233.043" height="60.004" viewBox="0 0 233.043 60.004">
  <g id="Artwork_2" data-name="Artwork 2" transform="translate(116.522 30.002)">
    <g id="Group_142" data-name="Group 142" transform="translate(-116.522 -30.002)">
      <g id="Group_138" data-name="Group 138">
        <path id="Path_1958" data-name="Path 1958" d="M46.777,120.089l6.068,6.141L71.366,107.9l18.521,18.331,6.068-6.141L71.366,95.648Z" transform="translate(-34.547 -70.641)" fill="#fff"/>
        <path id="Path_1959" data-name="Path 1959" d="M36.819,0,0,37.07,5.906,43.1,36.819,12.5,67.732,43.1l5.906-6.032Z" fill="#fff"/>
        <path id="Path_1960" data-name="Path 1960" d="M96.609,197.2h23.122L108.17,185.769Z" transform="translate(-71.351 -137.2)" fill="#fff"/>
      </g>
      <g id="Group_141" data-name="Group 141" transform="translate(87.58 7.891)">
        <g id="Group_139" data-name="Group 139">
          <path id="Path_1961" data-name="Path 1961" d="M356.923,42.97a12.853,12.853,0,0,1-12.817,12.859h-9.113L334.985,30.2,336,30.193c1.757-.013,3.7-.008,5.585,0,.88,0,1.732,0,2.52,0A12.811,12.811,0,0,1,356.923,42.97Zm-2.036,0a10.772,10.772,0,0,0-10.779-10.74c-.789,0-1.643,0-2.525,0-1.523,0-3.083-.007-4.554,0V53.793h7.076A10.814,10.814,0,0,0,354.886,42.97Z" transform="translate(-334.985 -30.184)" fill="#fff"/>
          <path id="Path_1962" data-name="Path 1962" d="M448.255,30.225V55.849h-2.037V43.928H431.212V55.849h-2.036V30.225h2.036V41.891h15.006V30.225Z" transform="translate(-404.55 -30.214)" fill="#fff"/>
          <path id="Path_1963" data-name="Path 1963" d="M535.463,55.849h-2.211l-5.236-12.387h0l-4.061-9.607-4.169,9.861-5.129,12.133h-2.209l5.066-11.988h0l.125-.3.271-.642,5.1-12.066.006-.013c.008-.019.02-.036.03-.054a1.008,1.008,0,0,1,.063-.115c.018-.027.039-.049.059-.074s.042-.054.067-.079a1.013,1.013,0,0,1,.081-.068.912.912,0,0,1,.072-.058,1.01,1.01,0,0,1,.116-.063c.019-.009.035-.021.054-.03l.006,0a1.038,1.038,0,0,1,.155-.048c.013,0,.025-.009.038-.011a1.017,1.017,0,0,1,.323-.007c.024,0,.048,0,.071.007s.04.013.06.018a1.06,1.06,0,0,1,.133.041l.007,0c.021.009.039.022.059.032a.96.96,0,0,1,.111.06c.027.018.05.039.074.059s.054.042.079.066a1.022,1.022,0,0,1,.068.08.826.826,0,0,1,.058.073,1,1,0,0,1,.063.115c.009.019.022.035.03.055l.006.013,4.994,11.813Z" transform="translate(-466.051 -30.214)" fill="#fff"/>
          <path id="Path_1964" data-name="Path 1964" d="M626.451,55.427l-15.2-21.036V55.849h-2.037V31.243a1.018,1.018,0,0,1,1.844-.6l15.2,21.036V30.254h2.036V54.831a1.018,1.018,0,0,1-1.844.6Z" transform="translate(-537.519 -30.214)" fill="#fff"/>
          <path id="Path_1965" data-name="Path 1965" d="M715.424,55.849h-2.211l-5.236-12.387-4.061-9.607-4.168,9.861h0l-5.13,12.133h-2.209l5.066-11.988h0l.124-.3.271-.642h0l5.1-12.066.005-.013c.008-.019.021-.036.03-.054a.963.963,0,0,1,.063-.115.907.907,0,0,1,.059-.074.63.63,0,0,1,.148-.147c.024-.019.046-.04.072-.058a.984.984,0,0,1,.116-.063c.019-.009.035-.021.054-.03l.006,0a1.03,1.03,0,0,1,.155-.048c.012,0,.025-.009.037-.011a1.017,1.017,0,0,1,.323-.007c.024,0,.048,0,.071.007s.04.013.06.018a1.052,1.052,0,0,1,.133.041l.007,0c.021.009.039.022.059.032a.987.987,0,0,1,.111.06c.026.018.05.039.074.059s.054.042.078.066.046.053.068.08.041.047.058.073a.959.959,0,0,1,.063.115c.009.019.021.035.03.055l.006.013,4.994,11.813Z" transform="translate(-598.962 -30.214)" fill="#fff"/>
          <path id="Path_1966" data-name="Path 1966" d="M806.41,55.427l-15.2-21.036V55.849h-2.037V31.243a1.018,1.018,0,0,1,1.844-.6l15.2,21.036V30.254h2.037V54.831a1.018,1.018,0,0,1-1.844.6Z" transform="translate(-670.429 -30.214)" fill="#fff"/>
          <path id="Path_1967" data-name="Path 1967" d="M883.575,55.849V30.225h2.036V55.849Z" transform="translate(-740.148 -30.214)" fill="#fff"/>
        </g>
        <g id="Group_140" data-name="Group 140" transform="translate(0.07 33.953)">
          <path id="Path_1968" data-name="Path 1968" d="M337.583,161.048q-.041.84-.041,1.79v3.328a8.78,8.78,0,0,0,.105,1.965q.1.209.688.21h.4v.367q-1.032-.041-1.626-.041-.525,0-1.86.041v-.367h.524a.805.805,0,0,0,.472-.09.562.562,0,0,0,.134-.367q.029-.277.064-1.693v-3.113l-.018-1.207a1.733,1.733,0,0,0-.16-.921q-.149-.169-.726-.169h-.292v-.367q.729.029,1.848.029.659,0,1.463-.035.531-.024.8-.024a3.284,3.284,0,0,1,2.052.513,1.688,1.688,0,0,1,.635,1.387,2.266,2.266,0,0,1-.367,1.221,2.662,2.662,0,0,1-1.041.941,3.031,3.031,0,0,1-1.437.356,4.392,4.392,0,0,1-.875-.111l-.116-.437a3.657,3.657,0,0,0,.857.128,1.7,1.7,0,0,0,1.276-.487,1.832,1.832,0,0,0,.472-1.332,1.634,1.634,0,0,0-.5-1.274,2.167,2.167,0,0,0-1.5-.458A4.056,4.056,0,0,0,337.583,161.048Z" transform="translate(-335.251 -160.296)" fill="#fff"/>
          <path id="Path_1969" data-name="Path 1969" d="M367.4,164.532q.571.822,1.417,1.912l1.119,1.452a2.074,2.074,0,0,0,.4.426.432.432,0,0,0,.2.052h.151v.367q-.484-.041-.845-.041a6.345,6.345,0,0,0-.7.041l-2.064-2.786q-.577-.769-1.236-1.5l.058-.2q.338.029.5.029a2.18,2.18,0,0,0,1.524-.5,1.725,1.725,0,0,0,.551-1.341,1.505,1.505,0,0,0-.466-1.175,1.94,1.94,0,0,0-1.346-.422,3.537,3.537,0,0,0-1.23.227q-.071.927-.07,1.982v2.816a12.262,12.262,0,0,0,.1,2.282q.1.225.641.225h.455v.367q-.968-.041-1.6-.041-.5,0-1.813.041v-.367h.437q.5,0,.595-.219a13.17,13.17,0,0,0,.093-2.3v-2.8a9.058,9.058,0,0,0-.108-2.023q-.108-.216-.7-.216h-.315v-.367q1.085.041,1.655.041.385,0,1.108-.029.839-.029,1.207-.029a4.235,4.235,0,0,1,1.53.213,1.6,1.6,0,0,1,1.064,1.577,2.057,2.057,0,0,1-.592,1.452A3.167,3.167,0,0,1,367.4,164.532Z" transform="translate(-355.851 -160.329)" fill="#fff"/>
          <path id="Path_1970" data-name="Path 1970" d="M393.69,168.423h.367q.542,0,.65-.262a13.881,13.881,0,0,0,.108-2.512v-1.976a16.366,16.366,0,0,0-.093-2.571q-.093-.239-.56-.239h-.472v-.367q.969.041,1.915.041.788,0,1.431-.041v.367h-.451a.864.864,0,0,0-.521.1.807.807,0,0,0-.123.5q-.03.624-.03,2.221v2.011a14.467,14.467,0,0,0,.1,2.5q.1.23.639.23h.387v.367q-.718-.041-1.565-.041-.987,0-1.781.041Z" transform="translate(-378.411 -160.378)" fill="#fff"/>
          <path id="Path_1971" data-name="Path 1971" d="M412.16,168.883q-.262-.781-.536-1.463l-2.087-5.217a13.28,13.28,0,0,0-.525-1.236q-.076-.1-.5-.1h-.239v-.367q.911.041,1.549.041.673,0,1.614-.041v.367h-.576a.828.828,0,0,0-.383.056.191.191,0,0,0-.087.173.581.581,0,0,0,.029.17l.755,2.016,1.586,4.044,1.541-3.856a11.6,11.6,0,0,0,.773-2.258q0-.265-.319-.277l-.238-.017-.5-.052v-.367q.773.041,1.273.041.523,0,1.313-.041v.367h-.233a.539.539,0,0,0-.4.131,4.284,4.284,0,0,0-.452.929l-1.964,4.8a22.441,22.441,0,0,0-.787,2.162Z" transform="translate(-389.181 -160.378)" fill="#fff"/>
          <path id="Path_1972" data-name="Path 1972" d="M442.388,165.811h-3.372l-.4.939a4.779,4.779,0,0,0-.39,1.143.231.231,0,0,0,.073.192.878.878,0,0,0,.37.093l.56.064v.367q-.56-.041-1.259-.041-.839,0-1.475.041v-.367l.175-.006a1.272,1.272,0,0,0,.527-.084.85.85,0,0,0,.254-.359q.414-.839.845-1.813l1.6-3.631q.641-1.446.874-2.1h.4l2.95,6.861a6.711,6.711,0,0,0,.4.842.591.591,0,0,0,.227.2,1.893,1.893,0,0,0,.577.084v.367q-.758-.041-1.446-.041-.641,0-1.708.041v-.367l.577-.035a1.035,1.035,0,0,0,.367-.064.194.194,0,0,0,.087-.163,2.311,2.311,0,0,0-.175-.548Zm-3.155-.478h2.937l-1.467-3.5Z" transform="translate(-410.028 -160.197)" fill="#fff"/>
          <path id="Path_1973" data-name="Path 1973" d="M472.591,161.025q-.064.874-.064,1.842v3.323a10.36,10.36,0,0,0,.093,2.043q.093.19.664.19h.437v.367q-1.032-.041-1.749-.041t-1.737.041v-.367h.49a.826.826,0,0,0,.5-.1.606.606,0,0,0,.146-.4q.058-.682.058-1.761v-3.328q0-.985-.041-1.807H470.8a8.607,8.607,0,0,0-1.582.067q-.145.067-.192.522l-.082.781h-.367l.012-.694q0-.42-.07-1.207,3.148.041,3.7.041l3.224-.041q-.111.985-.128,1.9h-.367l-.059-.764a1.1,1.1,0,0,0-.1-.469.439.439,0,0,0-.285-.09q-.641-.047-1.458-.047Z" transform="translate(-433.674 -160.378)" fill="#fff"/>
          <path id="Path_1974" data-name="Path 1974" d="M499.259,164.824v1.431l.006.823q0,.771.018,1.127.853.064,1.827.064a8.673,8.673,0,0,0,1.1-.058,2.774,2.774,0,0,0,.607-.152q.146-.513.3-1.282h.385q-.158,1.28-.158,1.707l.012.263q-.67.058-1.317.058l-.915-.017q-1.516-.041-2.227-.041-.682,0-1.813.041v-.367h.181a1.261,1.261,0,0,0,.638-.1.7.7,0,0,0,.175-.466q.044-.367.044-1.621v-3.2q0-.787-.038-1.288a2.686,2.686,0,0,0-.081-.6.338.338,0,0,0-.126-.149,1.591,1.591,0,0,0-.5-.093l-.449-.047v-.367h.63l.618.021q.519.02.787.02l2.238-.034,1.061-.007q.542-.005,1.1.041a6.5,6.5,0,0,0-.245,1.8h-.4a7.387,7.387,0,0,0-.064-1.067,4.875,4.875,0,0,0-1.691-.256q-.8,0-1.673.07.005.547-.012,1.094l-.012.9v1.181q.578.041,1.02.041a6.263,6.263,0,0,0,1.571-.1q.184-.1.184-.6v-.379h.4q-.041.88-.041,1.4,0,.554.041,1.306h-.4v-.338q0-.559-.219-.685a4.929,4.929,0,0,0-1.542-.125Q499.783,164.784,499.259,164.824Z" transform="translate(-454.653 -160.377)" fill="#fff"/>
          <path id="Path_1975" data-name="Path 1975" d="M538.567,164.824v1.431l.006.823q0,.771.017,1.127.853.064,1.827.064a8.673,8.673,0,0,0,1.1-.058,2.773,2.773,0,0,0,.607-.152q.146-.513.3-1.282h.385q-.157,1.28-.157,1.707l.012.263q-.67.058-1.317.058l-.915-.017q-1.516-.041-2.227-.041-.682,0-1.813.041v-.367h.181a1.26,1.26,0,0,0,.638-.1.693.693,0,0,0,.175-.466q.044-.367.044-1.621v-3.2q0-.787-.038-1.288a2.681,2.681,0,0,0-.082-.6.337.337,0,0,0-.125-.149,1.594,1.594,0,0,0-.5-.093l-.449-.047v-.367h.63l.618.021q.519.02.787.02l2.238-.034,1.061-.007q.542-.005,1.1.041a6.5,6.5,0,0,0-.245,1.8h-.4a7.386,7.386,0,0,0-.064-1.067,4.875,4.875,0,0,0-1.691-.256q-.8,0-1.673.07.006.547-.012,1.094l-.012.9v1.181q.578.041,1.02.041a6.263,6.263,0,0,0,1.571-.1q.183-.1.184-.6v-.379h.4q-.041.88-.041,1.4,0,.554.041,1.306h-.4v-.338q0-.559-.219-.685a4.932,4.932,0,0,0-1.542-.125Q539.092,164.784,538.567,164.824Z" transform="translate(-483.685 -160.377)" fill="#fff"/>
          <path id="Path_1976" data-name="Path 1976" d="M568.51,168.577a10.967,10.967,0,0,1,1.394.472,6.76,6.76,0,0,0,2.182.618,3.107,3.107,0,0,0,.688-.117v.3a4.2,4.2,0,0,0-.969.641,7.094,7.094,0,0,1-.916-.172q-.409-.107-1.243-.417a6.954,6.954,0,0,0-1.849-.5.781.781,0,0,0-.283.058q-.149.058-.744.391v-.385a16.726,16.726,0,0,1,1.431-.892,4.548,4.548,0,0,1-2.252-.522,3.674,3.674,0,0,1-1.458-1.491,4.686,4.686,0,0,1-.525-2.269,4.043,4.043,0,0,1,1.237-3.074,4.593,4.593,0,0,1,3.3-1.173,4.412,4.412,0,0,1,3.165,1.088,3.806,3.806,0,0,1,1.146,2.9,4.4,4.4,0,0,1-.674,2.435,4.519,4.519,0,0,1-1.765,1.607A5.047,5.047,0,0,1,568.51,168.577Zm-3.314-4.754a5.419,5.419,0,0,0,.449,2.287,3.354,3.354,0,0,0,1.2,1.461,3.1,3.1,0,0,0,1.721.487,2.924,2.924,0,0,0,1.569-.414,2.8,2.8,0,0,0,1.056-1.231,4.66,4.66,0,0,0,.385-2,4.784,4.784,0,0,0-.426-2.112,3.014,3.014,0,0,0-1.167-1.315,3.375,3.375,0,0,0-1.756-.441,3.121,3.121,0,0,0-1.6.391,2.7,2.7,0,0,0-1.053,1.143A3.79,3.79,0,0,0,565.2,163.823Z" transform="translate(-504.169 -160.049)" fill="#fff"/>
          <path id="Path_1977" data-name="Path 1977" d="M599.708,160.862v-.367q1.195.041,1.737.041.571,0,1.679-.041v.367H602.7q-.548,0-.659.21a7.85,7.85,0,0,0-.111,1.9v2.285a7.454,7.454,0,0,0,.137,1.743,1.431,1.431,0,0,0,.708.828,2.983,2.983,0,0,0,1.527.338,3.486,3.486,0,0,0,1.661-.362,1.487,1.487,0,0,0,.682-.778,6.13,6.13,0,0,0,.215-2v-2.2a5.587,5.587,0,0,0-.137-1.746q-.137-.219-.755-.219h-.3v-.367q1.21.041,1.536.041.531,0,1.32-.041v.367h-.4q-.463,0-.595.248a5.941,5.941,0,0,0-.132,1.74v2.186a8.829,8.829,0,0,1-.149,2.02,2.275,2.275,0,0,1-.542.942,2.713,2.713,0,0,1-1.049.665,4.407,4.407,0,0,1-1.542.244,5.3,5.3,0,0,1-1.6-.219,2.738,2.738,0,0,1-1.035-.539,1.843,1.843,0,0,1-.5-.784,5.59,5.59,0,0,1-.155-1.577l.012-1.108V162.9a8.431,8.431,0,0,0-.1-1.842q-.1-.2-.615-.2Z" transform="translate(-530.567 -160.378)" fill="#fff"/>
          <path id="Path_1978" data-name="Path 1978" d="M635.716,168.423h.368q.542,0,.65-.262a13.9,13.9,0,0,0,.108-2.512v-1.976a16.366,16.366,0,0,0-.093-2.571q-.094-.239-.56-.239h-.472v-.367q.969.041,1.916.041.788,0,1.43-.041v.367h-.451a.863.863,0,0,0-.521.1.806.806,0,0,0-.123.5q-.029.624-.029,2.221v2.011a14.487,14.487,0,0,0,.1,2.5q.1.23.639.23h.386v.367q-.719-.041-1.565-.041-.987,0-1.781.041Z" transform="translate(-557.161 -160.378)" fill="#fff"/>
          <path id="Path_1979" data-name="Path 1979" d="M654.574,161.025q-.065.874-.065,1.842v3.323a10.351,10.351,0,0,0,.094,2.043q.093.19.664.19h.437v.367q-1.032-.041-1.749-.041t-1.737.041v-.367h.49a.827.827,0,0,0,.5-.1.606.606,0,0,0,.146-.4q.058-.682.058-1.761v-3.328q0-.985-.041-1.807h-.593a8.609,8.609,0,0,0-1.582.067q-.145.067-.192.522l-.081.781h-.368l.012-.694q0-.42-.07-1.207,3.148.041,3.7.041l3.224-.041q-.111.985-.128,1.9h-.367l-.058-.764a1.1,1.1,0,0,0-.1-.469.44.44,0,0,0-.286-.09q-.641-.047-1.457-.047Z" transform="translate(-568.079 -160.378)" fill="#fff"/>
          <path id="Path_1980" data-name="Path 1980" d="M682.285,164.456q.355-.537,1.125-1.868l1.335-2.323h.9v.146a20.126,20.126,0,0,0-1.743,2.411,15.1,15.1,0,0,0-1.236,2.16,3.972,3.972,0,0,0-.07.983q0,1.053.052,1.67.035.332.12.4a1.64,1.64,0,0,0,.6.113l.443.047v.367q-1.016-.041-1.588-.041l-1.88.041v-.367h.5q.5,0,.6-.2a8.168,8.168,0,0,0,.1-1.838q0-.477-.029-1.041-.752-1.38-1.387-2.387a10.249,10.249,0,0,0-1.072-1.473,1.465,1.465,0,0,0-.417-.338,1.56,1.56,0,0,0-.6-.082v-.367l.939-.187.46-.093a1.275,1.275,0,0,1,.432.251,7.083,7.083,0,0,1,.892,1.253Q681.218,162.439,682.285,164.456Z" transform="translate(-588.416 -160.148)" fill="#fff"/>
          <path id="Path_1981" data-name="Path 1981" d="M727.524,165.7a5.675,5.675,0,0,0-.087,1,9.45,9.45,0,0,0,.087,1.207,9.8,9.8,0,0,1-1.752.487,10.1,10.1,0,0,1-1.868.184,5.181,5.181,0,0,1-2.417-.539,3.863,3.863,0,0,1-1.6-1.5,4.5,4.5,0,0,1,.041-4.418,4.081,4.081,0,0,1,1.673-1.527,5.978,5.978,0,0,1,2.716-.545,8.145,8.145,0,0,1,1.236.087,12.521,12.521,0,0,1,1.475.35l.5.134a11.369,11.369,0,0,0-.245,1.725h-.367v-.385a1.319,1.319,0,0,0-.093-.671,2.842,2.842,0,0,0-.927-.463,4.957,4.957,0,0,0-1.72-.277,3.524,3.524,0,0,0-2.623.921,3.607,3.607,0,0,0-.991,2.652,4.063,4.063,0,0,0,.892,2.67,3.5,3.5,0,0,0,2.862,1.282,5.834,5.834,0,0,0,2.046-.415q.035-.491.035-1.046a7.276,7.276,0,0,0-.023-.827.192.192,0,0,0-.084-.14,3.342,3.342,0,0,0-.609-.079l-.688-.058v-.367q1.335.058,1.982.058a6.805,6.805,0,0,0,.962-.058v.292Z" transform="translate(-618.913 -160.049)" fill="#fff"/>
          <path id="Path_1982" data-name="Path 1982" d="M759.191,164.532q.571.822,1.416,1.912l1.12,1.452a2.074,2.074,0,0,0,.4.426.434.434,0,0,0,.2.052h.151v.367q-.484-.041-.846-.041a6.351,6.351,0,0,0-.7.041l-2.064-2.786q-.577-.769-1.236-1.5l.058-.2q.338.029.5.029a2.18,2.18,0,0,0,1.524-.5,1.725,1.725,0,0,0,.551-1.341,1.506,1.506,0,0,0-.466-1.175,1.94,1.94,0,0,0-1.346-.422,3.54,3.54,0,0,0-1.23.227q-.07.927-.07,1.982v2.816a12.289,12.289,0,0,0,.1,2.282q.1.225.641.225h.455v.367q-.968-.041-1.6-.041-.5,0-1.813.041v-.367h.437q.5,0,.594-.219a13.124,13.124,0,0,0,.094-2.3v-2.8a9.075,9.075,0,0,0-.108-2.023q-.108-.216-.7-.216h-.315v-.367q1.084.041,1.655.041.385,0,1.108-.029.839-.029,1.207-.029a4.235,4.235,0,0,1,1.53.213,1.6,1.6,0,0,1,1.064,1.577,2.057,2.057,0,0,1-.592,1.452A3.165,3.165,0,0,1,759.191,164.532Z" transform="translate(-645.21 -160.329)" fill="#fff"/>
          <path id="Path_1983" data-name="Path 1983" d="M785.146,164.31a4.059,4.059,0,0,1,1.237-3.09,4.6,4.6,0,0,1,3.3-1.172,4.414,4.414,0,0,1,3.165,1.087,3.8,3.8,0,0,1,1.146,2.888,4.366,4.366,0,0,1-1.33,3.247,4.591,4.591,0,0,1-3.354,1.306,4.393,4.393,0,0,1-2.182-.513,3.658,3.658,0,0,1-1.447-1.5A4.684,4.684,0,0,1,785.146,164.31Zm1.183-.478a5.412,5.412,0,0,0,.452,2.294,3.351,3.351,0,0,0,1.211,1.463,3.14,3.14,0,0,0,1.733.487,2.967,2.967,0,0,0,1.581-.414,2.8,2.8,0,0,0,1.065-1.236,4.667,4.667,0,0,0,.388-2,4.777,4.777,0,0,0-.429-2.113,3.034,3.034,0,0,0-1.175-1.32,3.405,3.405,0,0,0-1.768-.443,3.17,3.17,0,0,0-1.61.39,2.7,2.7,0,0,0-1.062,1.146A3.791,3.791,0,0,0,786.329,163.832Z" transform="translate(-667.523 -160.049)" fill="#fff"/>
          <path id="Path_1984" data-name="Path 1984" d="M820.887,160.862v-.367q1.195.041,1.737.041.571,0,1.679-.041v.367h-.426q-.548,0-.659.21a7.864,7.864,0,0,0-.111,1.9v2.285a7.436,7.436,0,0,0,.137,1.743,1.43,1.43,0,0,0,.708.828,2.983,2.983,0,0,0,1.527.338,3.486,3.486,0,0,0,1.661-.362,1.486,1.486,0,0,0,.682-.778,6.13,6.13,0,0,0,.216-2v-2.2a5.574,5.574,0,0,0-.137-1.746q-.137-.219-.755-.219h-.3v-.367q1.21.041,1.536.041.531,0,1.32-.041v.367h-.4q-.463,0-.595.248a5.941,5.941,0,0,0-.132,1.74v2.186a8.833,8.833,0,0,1-.148,2.02,2.277,2.277,0,0,1-.542.942,2.711,2.711,0,0,1-1.049.665,4.405,4.405,0,0,1-1.542.244,5.3,5.3,0,0,1-1.6-.219,2.738,2.738,0,0,1-1.035-.539,1.84,1.84,0,0,1-.5-.784,5.581,5.581,0,0,1-.155-1.577l.012-1.108V162.9a8.431,8.431,0,0,0-.1-1.842q-.1-.2-.615-.2Z" transform="translate(-693.92 -160.378)" fill="#fff"/>
          <path id="Path_1985" data-name="Path 1985" d="M858.872,161.048q-.041.84-.041,1.79v3.328a8.772,8.772,0,0,0,.105,1.965q.1.209.688.21h.4v.367q-1.032-.041-1.626-.041-.524,0-1.859.041v-.367h.524a.805.805,0,0,0,.472-.09.562.562,0,0,0,.134-.367q.029-.277.064-1.693v-3.113l-.017-1.207a1.737,1.737,0,0,0-.161-.921q-.149-.169-.725-.169h-.292v-.367q.728.029,1.848.029.659,0,1.463-.035.53-.024.8-.024a3.286,3.286,0,0,1,2.052.513,1.689,1.689,0,0,1,.635,1.387,2.268,2.268,0,0,1-.367,1.221,2.665,2.665,0,0,1-1.041.941,3.03,3.03,0,0,1-1.437.356,4.385,4.385,0,0,1-.874-.111l-.117-.437a3.658,3.658,0,0,0,.857.128,1.7,1.7,0,0,0,1.276-.487,1.831,1.831,0,0,0,.472-1.332,1.633,1.633,0,0,0-.5-1.274,2.167,2.167,0,0,0-1.5-.458A4.057,4.057,0,0,0,858.872,161.048Z" transform="translate(-720.251 -160.296)" fill="#fff"/>
        </g>
      </g>
      <path id="Path_1986" data-name="Path 1986" d="M47.927,186.993" transform="translate(-35.397 -138.104)" fill="none"/>
    </g>
  </g>
</svg>
