<svg id="Layer_1" data-name="Layer 1" xmlns="http://www.w3.org/2000/svg" viewBox="0 0 1000 300"><defs><style>.cls-1{fill:#71b078;}.cls-2{fill:#009548;}.cls-3{fill:#89c981;}.cls-4{fill:#3bb44a;}.cls-5{fill:#638d6b;}.cls-6{fill:#0e6a39;}.cls-7{font-size:112.06px;font-family:ELYSRegular, ELYS;}.cls-7,.cls-8{fill:#fff;}.cls-8{font-size:45.66px;font-family:BookAntiqua, Book Antiqua;}</style></defs><polygon class="cls-1" points="91.98 224.66 115.19 248.15 186.04 178.03 186.04 131.17 91.98 224.66"/><polygon class="cls-2" points="280.09 224.66 256.88 248.15 186.04 178.03 186.04 131.17 280.09 224.66"/><polygon class="cls-3" points="45.21 177.31 67.8 200.38 186.04 83.35 186.04 35.52 45.21 177.31"/><polygon class="cls-4" points="326.86 177.31 304.27 200.38 186.04 83.35 186.04 35.52 326.86 177.31"/><polygon class="cls-5" points="186.04 221.29 186.04 265.03 141.82 265.03 186.04 221.29"/><polygon class="cls-6" points="186.04 221.29 186.04 265.03 230.25 265.03 186.04 221.29"/><text class="cls-7" transform="translate(383.39 163.76)">DHANANI</text><text class="cls-8" transform="translate(379.46 227.59)">EB-5 INTERNATIONAL</text></svg>