<?xml version="1.0" encoding="UTF-8"?>
<svg id="Layer_1" data-name="Layer 1" xmlns="http://www.w3.org/2000/svg" version="1.1" viewBox="0 0 912.9 248.9">
  <defs>
    <style>
      .cls-1 {
        isolation: isolate;
      }

      .cls-2 {
        fill: #fff;
        stroke-width: 0px;
      }
    </style>
  </defs>
  <polygon class="cls-2" points="53.2 200.8 76.4 224.3 147.2 154.1 218.1 224.3 241.3 200.8 147.2 107.3 53.2 200.8"/>
  <polygon class="cls-2" points="147.2 11.6 6.4 153.4 29 176.5 147.2 59.4 265.5 176.5 288.1 153.4 147.2 11.6"/>
  <polygon class="cls-2" points="103 241.1 147.2 241.1 191.4 241.1 147.2 197.4 103 241.1"/>
  <g class="cls-1">
    <path class="cls-2" d="M425.3,90.8c0,27.1-22,49.2-49,49.2h-34.9V42h34.9c27,0,49,21.9,49,48.9h0ZM417.5,90.8c0-22.7-18.5-41.1-41.2-41.1s-6.3,0-9.7,0h-17.4v82.5h27.1c22.7,0,41.2-18.6,41.2-41.4Z"/>
    <path class="cls-2" d="M508.6,41.9v98h-7.8v-45.6h-57.4v45.6h-7.8V41.9h7.8v44.6h57.4v-44.6h7.8Z"/>
    <path class="cls-2" d="M606.9,139.9h-8.5l-20-47.4-15.5-36.7-15.9,37.7h0l-19.6,46.4h-8.4l19.4-45.9h0l.5-1.1,1-2.5h0l19.5-46.2h0c0,0,0-.2,0-.3,0-.2,0-.3.2-.4,0,0,0-.2.2-.3,0,0,.2-.2.3-.3,0,0,.2-.2.3-.3,0,0,.2-.2.3-.2s.3-.2.4-.2c0,0,0,0,.2,0h0c.2,0,.4,0,.6-.2h1.8c.2,0,.3,0,.5.2h0s0,0,.2,0c0,0,.3,0,.4.2,0,0,.2.2.3.2s.2.2.3.3.2.2.3.3c0,0,.2.2.2.3s.2.3.2.4c0,0,0,0,0,.2h0l19.1,45.2,21.3,50.4.2.2Z"/>
    <path class="cls-2" d="M681.6,138.3l-58.1-80.5v82.1h-7.8V45.8c0-1.7,1.1-3.2,2.7-3.7,1.6-.5,3.4,0,4.4,1.4l58.1,80.5V42h7.8v94c0,1.7-1.1,3.2-2.7,3.7-.4.1-.8.2-1.2.2-1.2,0-2.4-.6-3.2-1.6Z"/>
    <path class="cls-2" d="M786.9,139.9h-8.5l-20-47.4h0l-15.5-36.7-15.9,37.7h0l-19.6,46.4h-8.4l19.4-45.9h0l.5-1.1,1-2.5,19.5-46.2h0c0,0,0-.2,0-.3,0-.2,0-.3.2-.4,0,0,0-.2.2-.3,0,0,.2-.2.3-.3,0,0,.2-.2.3-.3,0,0,.2-.2.3-.2s.3-.2.4-.2c0,0,0,0,.2,0h0c.2,0,.4,0,.6-.2h1.8c.2,0,.3,0,.5.2h0s0,0,.2,0c0,0,.3,0,.4.2,0,0,.2.2.3.2s.2.2.3.3.2.2.3.3c0,0,.2.2.2.3s.2.3.2.4c0,0,0,0,0,.2h0l19.1,45.2,21.3,50.4.2.2Z"/>
    <path class="cls-2" d="M861.5,138.3l-58.1-80.5v82.1h-7.8V45.8c0-1.7,1.1-3.2,2.7-3.7,1.6-.5,3.4,0,4.4,1.4l58.1,80.5V42h7.8v94c0,1.7-1.1,3.2-2.7,3.7-.4.1-.8.2-1.2.2-1.2,0-2.4-.6-3.2-1.6Z"/>
    <path class="cls-2" d="M890,139.9V41.9h7.8v98h-7.8Z"/>
  </g>
  <g class="cls-1">
    <path class="cls-2" d="M350.8,188.7v12.9c2.2.2,4.5.2,7,.2s3.1,0,4.2-.2c.7,0,1.5-.3,2.3-.6.4-1.3.8-2.9,1.1-4.9h1.5c-.4,3.3-.6,5.4-.6,6.5v1c-1.7.1-3.3.2-5,.2h-3.5c-3.9-.2-6.7-.2-8.5-.2s-4,0-6.9.2v-1.4h.7c1.3,0,2.1-.1,2.4-.4.3-.3.6-.8.7-1.8.1-.9.2-3,.2-6.2v-12.2c0-2,0-3.6-.1-4.9,0-1.3-.2-2-.3-2.3s-.3-.4-.5-.6-.8-.3-1.9-.4l-1.7-.2v-1.4h4.8c1.3.1,2.3.2,3,.2h8.6c0-.1,4.1-.2,4.1-.2,1.4,0,2.8,0,4.2.2-.6,1.8-.9,4.1-.9,6.9h-1.5c0-1.6,0-3-.2-4.1-1.8-.7-3.9-1-6.5-1s-4.2,0-6.4.3v12.1c1.5.1,2.8.2,3.9.2,3.5,0,5.5-.1,6-.4.5-.2.7-1,.7-2.3v-1.4h1.5c-.1,2.2-.2,4-.2,5.4s0,3.1.2,5h-1.5v-1.3c0-1.4-.3-2.3-.8-2.6-.6-.3-2.5-.5-5.9-.5s-2.5,0-3.9.2h-.3Z"/>
    <path class="cls-2" d="M389.3,185.9c3.2.2,5.5.9,6.9,2.2s2.1,3,2.1,5.3-1.2,5.3-3.6,7.3c-2.4,2.1-5.4,3.1-9,3.1h-1.8c-1.5-.1-2.7-.2-3.8-.2h-4.5v-.9c.9-.4,1.5-.8,1.6-1,.2-.2.3-.6.3-1.2.1-1.8.2-3.8.2-6v-13.9c0-3.7-.1-5.8-.4-6.3-.3-.6-1.1-.9-2.4-.9h-1.5v-1.4h3.9c1.1.1,1.9.2,2.5.2.9,0,2.8,0,5.5-.1h3.3c2.6,0,4.5.4,5.7,1.3,1.6,1.1,2.4,2.7,2.4,4.8s-.6,3.2-1.7,4.5-3,2.4-5.8,3.2h0ZM381.9,185.3h2c3,0,5.1-.5,6.3-1.6,1.3-1,1.9-2.6,1.9-4.5s-.5-3-1.6-3.9-2.8-1.4-5.1-1.4-2.2,0-3.4.3c-.1,1.8-.2,4.6-.2,8.2v2.8h.1ZM381.9,201.6c1.4.2,2.5.3,3.4.3,2.6,0,4.7-.7,6.1-2.1,1.4-1.4,2.2-3.3,2.2-5.7s-.3-2.9-1-4-1.5-1.8-2.7-2.3-3-.7-5.5-.7h-2.6v14.4h.1Z"/>
    <path class="cls-2" d="M405,194.8l-.3-.3c.4-1.1.8-2.2,1.1-3.2,2.2.1,4,.2,5.4.2s3.4,0,6.6-.2l.2.3c-.5,1.1-.9,2.2-1.1,3.2-2-.1-3.9-.2-5.6-.2s-4,0-6.3.2h0Z"/>
    <path class="cls-2" d="M423.1,197l1.1-.6.6,1c1,1.8,1.7,2.9,2,3.2.4.4,1.1.8,2,1.1s1.9.4,3.1.4c2.5,0,4.4-.7,5.8-2.2,1.4-1.4,2.1-3.5,2.1-6.2s-.6-4.2-1.9-5.6c-1.3-1.4-3-2-5.1-2s-2.3.2-3.3.7-1.8,1.2-2.6,2.2l-1-.3c.2-2.6.3-5.9.3-9.9s-.1-4.7-.3-6.6l.4-.2c2.3.2,4.7.3,7.2.3s5.8-.1,8.6-.3l.3.2c-.1.7-.2,1.3-.2,1.7s0,1,.2,1.8l-.3.2c-1.7-.1-3.3-.2-4.9-.2-3.1,0-6.1,0-8.9.2-.1,1.1-.3,4.2-.4,9.3,1.1-.9,2.1-1.5,3.1-1.8,1-.4,2.1-.5,3.4-.5,2.8,0,5,.8,6.7,2.5s2.5,3.8,2.5,6.4-1.3,6.2-4,8.7-5.8,3.7-9.4,3.7-1.7,0-2.4-.3c-.7-.2-1.5-.5-2.4-1-.3-.9-.5-1.5-.7-2l-1.7-4h0Z"/>
    <path class="cls-2" d="M465.4,202.4h1.4c1.4,0,2.2-.3,2.5-1s.4-3.9.4-9.6v-7.6c0-5.9-.1-9.2-.4-9.8s-1-.9-2.1-.9h-1.8v-1.4c2.5.1,4.9.2,7.3.2s3.8,0,5.5-.2v1.4h-1.7c-1.1,0-1.7.1-2,.4-.3.3-.4.9-.5,1.9,0,1.6,0,4.4,0,8.5v7.7c0,5.8,0,9,.4,9.5s1.1.9,2.4.9h1.5v1.4c-1.8-.1-3.8-.2-6-.2s-4.8,0-6.8.2v-1.4h0Z"/>
    <path class="cls-2" d="M490.5,177.1v15.4c0,3.5,0,6,.2,7.3,0,1.1.3,1.7.5,1.9s1,.4,2.1.5h1.4v1.5c-1.6-.1-3.1-.2-4.4-.2s-3,0-6.3.2v-1.4h1.6c1,0,1.6-.1,1.9-.4.3-.3.5-.8.6-1.6.2-1.6.2-3.9.2-6.7v-17.3c0-.9,0-1.5-.3-1.8s-.5-.6-.9-.9c-.4-.3-.9-.4-1.6-.4h-1.4v-1.4c1.9.1,3.3.2,4.3.2s2.2,0,3.5-.2c1.5,1.8,2.9,3.5,4.2,5.2s2.6,3.4,4,5.1l7.6,9.4c2.7,3.4,4.7,5.7,5.9,7v-14.3c0-6,0-9.3-.3-9.8-.2-.6-1.1-.9-2.6-1.1l-1.7-.2v-1.4c2.4.1,4.2.2,5.6.2s3.2,0,5.3-.2v1.4h-1.7c-1.4,0-2.2.5-2.4,1.4,0,.6-.2,3.9-.2,9.8v10c0,2.7,0,5.9.4,9.7-2-.3-3.2-.5-3.5-.7-.3-.1-.6-.4-.9-.7-1.6-1.8-3.4-3.9-5.2-6.1l-16-19.8v.4Z"/>
    <path class="cls-2" d="M541,174.1c-.2,2.2-.2,4.6-.2,7v12.7c0,4.7,0,7.3.4,7.8s1.1.7,2.5.7h1.7v1.4c-2.6-.1-4.9-.2-6.7-.2s-4.1,0-6.6.2v-1.4h1.9c1,0,1.6-.1,1.9-.4.3-.3.5-.8.6-1.5,0-1.7.2-4,.2-6.7v-12.7c0-2.5,0-4.8-.2-6.9h-2.3c-3.7,0-5.7,0-6,.3-.4.2-.6.8-.7,2l-.3,3h-1.4v-2.7c0-1.1,0-2.6-.2-4.6,8,.1,12.7.2,14.1.2l12.3-.2c-.3,2.5-.4,4.9-.5,7.3h-1.4l-.2-2.9c0-1-.2-1.6-.4-1.8s-.5-.3-1.1-.3c-1.6-.1-3.5-.2-5.6-.2h-1.8Z"/>
    <path class="cls-2" d="M566.4,188.7v12.9c2.2.2,4.5.2,7,.2s3.1,0,4.2-.2c.7,0,1.5-.3,2.3-.6.4-1.3.8-2.9,1.1-4.9h1.5c-.4,3.3-.6,5.4-.6,6.5v1c-1.7.1-3.3.2-5,.2h-3.5c-3.9-.2-6.7-.2-8.5-.2s-4,0-6.9.2v-1.4h.7c1.3,0,2.1-.1,2.4-.4.3-.3.6-.8.7-1.8,0-.9.2-3,.2-6.2v-12.2c0-2,0-3.6,0-4.9s-.2-2-.3-2.3-.3-.4-.5-.6-.8-.3-1.9-.4l-1.7-.2v-1.4h4.8c1.3.1,2.3.2,3,.2h8.6c0-.1,4.1-.2,4.1-.2,1.4,0,2.8,0,4.2.2-.6,1.8-.9,4.1-.9,6.9h-1.5c0-1.6,0-3-.2-4.1-1.8-.7-3.9-1-6.5-1s-4.2,0-6.4.3v12.1c1.5.1,2.8.2,3.9.2,3.5,0,5.5-.1,6-.4.5-.2.7-1,.7-2.3v-1.4h1.5c0,2.2-.2,4-.2,5.4s0,3.1.2,5h-1.5v-1.3c0-1.4-.3-2.3-.8-2.6-.6-.3-2.5-.5-5.9-.5s-2.5,0-3.9.2h-.3Z"/>
    <path class="cls-2" d="M605.4,187.7c1.5,2.1,3.3,4.5,5.4,7.3l4.3,5.5c.8,1,1.3,1.5,1.5,1.6s.5.2.8.2h.6v1.4c-1.2-.1-2.3-.2-3.2-.2s-1.7,0-2.7.2l-7.9-10.7c-1.5-2-3-3.9-4.7-5.7l.2-.8c.9,0,1.5.1,1.9.1,2.5,0,4.4-.6,5.8-1.9s2.1-3,2.1-5.1-.6-3.4-1.8-4.5-2.9-1.6-5.1-1.6-3.1.3-4.7.9c-.2,2.4-.3,4.9-.3,7.6v10.8c0,5.2,0,8.2.4,8.7.3.6,1.1.9,2.5.9h1.7v1.4c-2.5-.1-4.5-.2-6.1-.2s-3.6,0-6.9.2v-1.4h1.7c1.3,0,2-.3,2.3-.8.2-.6.4-3.5.4-8.8v-10.7c0-4.6,0-7.2-.4-7.7-.3-.5-1.2-.8-2.7-.8h-1.2v-1.4c2.8.1,4.9.2,6.3.2s2.4,0,4.2-.1c2.1,0,3.7-.1,4.6-.1,2.6,0,4.5.3,5.8.8s2.3,1.3,3,2.4c.7,1,1,2.3,1,3.7,0,2.1-.8,3.9-2.3,5.5s-3.7,2.7-6.6,3.3v-.2Z"/>
    <path class="cls-2" d="M629.3,177.1v15.4c0,3.5,0,6,.2,7.3,0,1.1.3,1.7.5,1.9s1,.4,2.1.5h1.4v1.5c-1.6-.1-3.1-.2-4.4-.2s-3,0-6.3.2v-1.4h1.6c1,0,1.6-.1,1.9-.4.3-.3.5-.8.6-1.6.2-1.6.2-3.9.2-6.7v-17.3c0-.9,0-1.5-.3-1.8s-.5-.6-.9-.9c-.4-.3-.9-.4-1.6-.4h-1.4v-1.4c1.9.1,3.3.2,4.3.2s2.2,0,3.5-.2c1.5,1.8,2.9,3.5,4.2,5.2s2.6,3.4,4,5.1l7.6,9.4c2.7,3.4,4.7,5.7,5.9,7v-14.3c0-6,0-9.3-.3-9.8-.2-.6-1.1-.9-2.6-1.1l-1.7-.2v-1.4c2.4.1,4.2.2,5.6.2s3.2,0,5.3-.2v1.4h-1.7c-1.4,0-2.2.5-2.4,1.4,0,.6-.2,3.9-.2,9.8v10c0,2.7,0,5.9.4,9.7-2-.3-3.2-.5-3.5-.7s-.6-.4-.9-.7c-1.6-1.8-3.4-3.9-5.2-6.1l-16-19.8v.4Z"/>
    <path class="cls-2" d="M686.9,193.1h-12.9l-1.5,3.6c-1,2.4-1.5,3.8-1.5,4.4s0,.6.3.7c.2.1.7.3,1.4.4l2.1.2v1.4c-1.4-.1-3-.2-4.8-.2s-4,0-5.6.2v-1.4h.7c1,0,1.7-.2,2-.3s.6-.6,1-1.4c1.1-2.1,2.1-4.4,3.2-6.9l6.1-13.9c1.6-3.7,2.7-6.4,3.3-8h1.5l11.3,26.2c.8,1.8,1.3,2.9,1.5,3.2s.5.6.9.8c.3.2,1.1.3,2.2.3v1.4c-1.9-.1-3.8-.2-5.5-.2s-3.8,0-6.5.2v-1.4h2.2c.8-.2,1.3-.3,1.4-.4.2-.2.3-.4.3-.6s-.2-1-.7-2.1l-2.4-6.2ZM674.8,191.3h11.2l-5.6-13.4-5.6,13.4h0Z"/>
    <path class="cls-2" d="M719,174.1c-.2,2.2-.2,4.6-.2,7v12.7c0,4.7,0,7.3.4,7.8.2.5,1.1.7,2.5.7h1.7v1.4c-2.6-.1-4.9-.2-6.7-.2s-4.1,0-6.6.2v-1.4h1.9c1,0,1.6-.1,1.9-.4.3-.3.5-.8.6-1.5,0-1.7.2-4,.2-6.7v-12.7c0-2.5,0-4.8-.2-6.9h-2.3c-3.7,0-5.7,0-6,.3-.4.2-.6.8-.7,2l-.3,3h-1.4v-2.7c0-1.1,0-2.6-.2-4.6,8,.1,12.7.2,14.1.2l12.3-.2c-.3,2.5-.4,4.9-.5,7.3h-1.4l-.2-2.9c0-1-.2-1.6-.4-1.8s-.5-.3-1.1-.3c-1.6-.1-3.5-.2-5.6-.2h-1.8Z"/>
    <path class="cls-2" d="M735.6,202.4h1.4c1.4,0,2.2-.3,2.5-1s.4-3.9.4-9.6v-7.6c0-5.9,0-9.2-.4-9.8-.2-.6-1-.9-2.1-.9h-1.8v-1.4c2.5.1,4.9.2,7.3.2s3.8,0,5.5-.2v1.4h-1.7c-1.1,0-1.7.1-2,.4-.3.3-.4.9-.5,1.9,0,1.6,0,4.4,0,8.5v7.7c0,5.8,0,9,.4,9.5s1.1.9,2.4.9h1.5v1.4c-1.8-.1-3.8-.2-6-.2s-4.8,0-6.8.2v-1.4h0Z"/>
    <path class="cls-2" d="M754.3,188c0-4.9,1.6-8.8,4.7-11.8,3.2-3,7.4-4.5,12.6-4.5s9.2,1.4,12.1,4.2c2.9,2.8,4.4,6.5,4.4,11s-1.7,9.1-5.1,12.4c-3.4,3.3-7.7,5-12.8,5s-6-.7-8.3-2-4.2-3.2-5.5-5.7-2-5.4-2-8.6h-.1ZM758.8,186.1c0,3.4.6,6.3,1.7,8.8,1.2,2.5,2.7,4.4,4.6,5.6s4.1,1.9,6.6,1.9,4.3-.5,6-1.6,3.1-2.6,4.1-4.7c1-2.1,1.5-4.6,1.5-7.6s-.5-5.8-1.6-8.1c-1.1-2.2-2.6-3.9-4.5-5s-4.2-1.7-6.8-1.7-4.4.5-6.2,1.5c-1.7,1-3.1,2.5-4.1,4.4s-1.5,4.1-1.5,6.7l.2-.2Z"/>
    <path class="cls-2" d="M800.2,177.1v15.4c0,3.5,0,6,.2,7.3,0,1.1.3,1.7.5,1.9s1,.4,2.1.5h1.4v1.5c-1.6-.1-3.1-.2-4.4-.2s-3,0-6.3.2v-1.4h1.6c1,0,1.6-.1,1.9-.4.3-.3.5-.8.6-1.6.2-1.6.2-3.9.2-6.7v-17.3c0-.9,0-1.5-.3-1.8s-.5-.6-.9-.9c-.4-.3-.9-.4-1.6-.4h-1.4v-1.4c1.9.1,3.3.2,4.3.2s2.2,0,3.5-.2c1.5,1.8,2.9,3.5,4.2,5.2s2.6,3.4,4,5.1l7.6,9.4c2.7,3.4,4.7,5.7,5.9,7v-14.3c0-6,0-9.3-.3-9.8-.2-.6-1.1-.9-2.6-1.1l-1.7-.2v-1.4c2.4.1,4.2.2,5.6.2s3.2,0,5.3-.2v1.4h-1.7c-1.4,0-2.2.5-2.4,1.4,0,.6-.2,3.9-.2,9.8v10c0,2.7,0,5.9.4,9.7-2-.3-3.2-.5-3.5-.7-.3-.1-.6-.4-.9-.7-1.6-1.8-3.4-3.9-5.2-6.1l-16-19.8v.4Z"/>
    <path class="cls-2" d="M857.8,193.1h-12.9l-1.5,3.6c-1,2.4-1.5,3.8-1.5,4.4s0,.6.3.7c.2.1.7.3,1.4.4l2.1.2v1.4c-1.4-.1-3-.2-4.8-.2s-4,0-5.6.2v-1.4h.7c1,0,1.7-.2,2-.3s.6-.6,1-1.4c1.1-2.1,2.1-4.4,3.2-6.9l6.1-13.9c1.6-3.7,2.7-6.4,3.3-8h1.5l11.3,26.2c.8,1.8,1.3,2.9,1.5,3.2s.5.6.9.8c.3.2,1.1.3,2.2.3v1.4c-1.9-.1-3.8-.2-5.5-.2s-3.8,0-6.5.2v-1.4h2.2c.8-.2,1.3-.3,1.4-.4.2-.2.3-.4.3-.6s-.2-1-.7-2.1l-2.4-6.2ZM845.7,191.3h11.2l-5.6-13.4-5.6,13.4h0Z"/>
    <path class="cls-2" d="M883.4,201.6c1.5,0,2.9.1,4.3.1,2.8,0,5,0,6.5-.2,1.1-.1,2.2-.3,3.4-.6l1.3-5.2h1.4c-.4,2.8-.7,5.4-.9,7.9-1.3.2-3.2.3-5.5.3l-10.6-.2c-1.4,0-3.6,0-6.7.2v-1.2c1.2-.5,1.9-1.1,2.1-1.7.2-.6.3-2.9.3-7.1v-12.3c0-4.5,0-6.9-.3-7.5-.2-.5-.8-.8-1.8-.8h-2.4v-1.4c3.5.1,5.9.2,7,.2s3.6,0,6.3-.2v1.4h-2.8c-.8,0-1.3.2-1.5.7s-.3,2.3-.3,5.6v21.8l.2.2Z"/>
  </g>
</svg>