<svg xmlns="http://www.w3.org/2000/svg" id="header_logo" data-name="header logo" width="196.48" height="62.716" viewBox="0 0 196.48 62.716"><g id="Layer_1-2"><path id="Path_233" data-name="Path 233" d="M2.011,74.6v3.448h3.3V74.6H7.328v8.98H5.316V79.772h-3.3V83.58H0V74.6Z" transform="translate(0 -21.008)" fill="#00984a"></path><path id="Path_234" data-name="Path 234" d="M17.411,74.6v5.1c0,1.58.575,2.3,1.652,2.3s1.652-.718,1.652-2.3V74.6h2.011v5.029c0,2.73-1.365,4.095-3.736,4.095S15.4,82.43,15.4,79.629V74.6Z" transform="translate(-4.337 -21.008)" fill="#00984a"></path><path id="Path_235" data-name="Path 235" d="M30.7,74.6h5.46v1.652H32.711v2.083h3.161v1.652H32.711V83.58H30.7Z" transform="translate(-8.645 -21.008)" fill="#00984a"></path><path id="Path_236" data-name="Path 236" d="M45.083,74.6v5.1c0,1.58.575,2.3,1.58,2.3s1.652-.718,1.652-2.3V74.6h2.011v5.029c0,2.73-1.365,4.095-3.736,4.095S43,82.43,43,79.629V74.6Z" transform="translate(-12.109 -21.008)" fill="#00984a"></path><path id="Path_237" data-name="Path 237" d="M58.331,81.468a4.889,4.889,0,0,0,2.227.575c.934,0,1.437-.359,1.437-.934s-.431-.862-1.509-1.221c-1.509-.647-2.514-1.437-2.514-2.73,0-1.509,1.293-2.658,3.376-2.658a6.223,6.223,0,0,1,2.3.431l-.431,1.652a4.191,4.191,0,0,0-1.868-.431c-.862,0-1.293.431-1.293.862,0,.575.5.79,1.652,1.293,1.58.575,2.3,1.437,2.3,2.658,0,1.509-1.149,2.73-3.592,2.73a6.124,6.124,0,0,1-2.514-.575Z" transform="translate(-16.305 -20.98)" fill="#00984a"></path><path id="Path_238" data-name="Path 238" d="M19.094,0H.2V19.4l28.3,28.52H47.757V28.376ZM44.812,44.9H29.654L3.217,18.1V3.017H18.088L44.812,29.885Z" transform="translate(-0.056)" fill="#bf1e2d"></path><path id="Path_239" data-name="Path 239" d="M47.917,19.094V.2H28.52L0,28.576V47.829H19.54ZM3.017,44.812V29.654l26.8-26.437H44.9V18.088L18.032,44.812Z" transform="translate(0 -0.056)" fill="#285992"></path><path id="Path_240" data-name="Path 240" d="M11.3,43.025H42.909V11.2H11.3Zm29.239-2.443h-26.8V13.643h26.8Z" transform="translate(-3.182 -3.154)" fill="#00984a"></path><g id="Group_1460" data-name="Group 1460" transform="translate(58.693 9.483)"><path id="Path_241" data-name="Path 241" d="M90.392,25.279H88.884V20.106H83.209v5.172H81.7V14h1.509v4.813h5.675V14h1.509Z" transform="translate(-81.7 -13.425)" fill="#285992"></path><path id="Path_242" data-name="Path 242" d="M102.188,26.321a3.584,3.584,0,0,1-.216-.862A3,3,0,0,1,99.6,26.464a2.771,2.771,0,0,1-2.012-.718,2.478,2.478,0,0,1,.216-3.807,4.493,4.493,0,0,1,2.8-.718h1.365v-.647a1.813,1.813,0,0,0-.431-1.221,1.756,1.756,0,0,0-1.293-.431,2.481,2.481,0,0,0-1.293.359,1.131,1.131,0,0,0-.5.934H97.016a2.108,2.108,0,0,1,.431-1.221,3.256,3.256,0,0,1,1.221-.934,4.262,4.262,0,0,1,1.652-.359,3.084,3.084,0,0,1,2.227.718,2.507,2.507,0,0,1,.862,2.011v3.951a4.072,4.072,0,0,0,.287,1.8v.144Zm-2.371-1.078a2.927,2.927,0,0,0,1.293-.359,1.573,1.573,0,0,0,.862-.934V22.226h-1.149c-1.724,0-2.658.5-2.658,1.509a1.462,1.462,0,0,0,.431,1.078A1.813,1.813,0,0,0,99.817,25.243Z" transform="translate(-85.952 -14.467)" fill="#285992"></path><path id="Path_243" data-name="Path 243" d="M116.14,20.959a5.079,5.079,0,0,1-.862,3.089,2.742,2.742,0,0,1-2.371,1.149,2.786,2.786,0,0,1-2.443-1.149l-.072.934H109.1V13.2h1.437v4.454a2.87,2.87,0,0,1,2.371-1.078,2.742,2.742,0,0,1,2.371,1.149,5.162,5.162,0,0,1,.862,3.161Zm-1.437-.144a3.754,3.754,0,0,0-.575-2.227,1.948,1.948,0,0,0-1.652-.79,2.034,2.034,0,0,0-2.011,1.293v3.592a2.167,2.167,0,0,0,2.011,1.293,1.817,1.817,0,0,0,1.58-.79A3.234,3.234,0,0,0,114.7,20.815Z" transform="translate(-89.416 -13.2)" fill="#285992"></path><path id="Path_244" data-name="Path 244" d="M121.4,14.69a.816.816,0,0,1,.216-.575,1.078,1.078,0,0,1,1.293,0,.874.874,0,0,1,0,1.149,1.078,1.078,0,0,1-1.293,0A.816.816,0,0,1,121.4,14.69Zm1.58,10.56h-1.437V16.917h1.437Z" transform="translate(-92.88 -13.397)" fill="#285992"></path><path id="Path_245" data-name="Path 245" d="M133.84,20.959a5.079,5.079,0,0,1-.862,3.089,2.742,2.742,0,0,1-2.371,1.149,2.786,2.786,0,0,1-2.443-1.149l-.072.934H126.8V13.2h1.437v4.454a2.87,2.87,0,0,1,2.371-1.078,2.742,2.742,0,0,1,2.371,1.149,5.162,5.162,0,0,1,.862,3.161Zm-1.437-.144a3.754,3.754,0,0,0-.575-2.227,1.948,1.948,0,0,0-1.652-.79,2.034,2.034,0,0,0-2.012,1.293v3.592a2.167,2.167,0,0,0,2.012,1.293,1.817,1.817,0,0,0,1.58-.79A3.6,3.6,0,0,0,132.4,20.815Z" transform="translate(-94.401 -13.2)" fill="#285992"></path><path id="Path_246" data-name="Path 246" d="M152.746,14v7.615A3.518,3.518,0,0,1,151.74,24.2a4.125,4.125,0,0,1-2.658,1.149h-.359a4.3,4.3,0,0,1-2.945-1.006,3.518,3.518,0,0,1-1.078-2.73V14h1.437v7.615a2.567,2.567,0,0,0,.647,1.868,3.233,3.233,0,0,0,3.879,0,2.567,2.567,0,0,0,.647-1.868V14Z" transform="translate(-99.441 -13.425)" fill="#285992"></path><path id="Path_247" data-name="Path 247" d="M160.165,18.044l.072,1.078a3.065,3.065,0,0,1,2.514-1.221c1.8,0,2.658,1.006,2.658,3.017v5.532h-1.437v-5.6a1.945,1.945,0,0,0-.431-1.365,1.756,1.756,0,0,0-1.293-.431,2.422,2.422,0,0,0-1.221.359,1.858,1.858,0,0,0-.79,1.006v5.963H158.8V18.044Z" transform="translate(-103.412 -14.524)" fill="#285992"></path><path id="Path_248" data-name="Path 248" d="M171,14.69a.816.816,0,0,1,.216-.575,1.078,1.078,0,0,1,1.293,0,.874.874,0,0,1,0,1.149,1.078,1.078,0,0,1-1.293,0A.816.816,0,0,1,171,14.69Zm1.509,10.56h-1.437V16.917h1.437Z" transform="translate(-106.848 -13.397)" fill="#285992"></path></g><g id="Group_1461" data-name="Group 1461" transform="translate(126.652 13.003)"><path id="Path_249" data-name="Path 249" d="M179.892,24.494l2.083-6.394h1.437l-3.017,8.333h-1.078L176.3,18.1h1.437Z" transform="translate(-176.3 -18.1)" fill="#285992"></path></g><g id="Group_1462" data-name="Group 1462" transform="translate(135.057 9.986)"><path id="Path_250" data-name="Path 250" d="M191.807,26.464a3.336,3.336,0,0,1-2.73-1.149A4.079,4.079,0,0,1,188,22.3V22.01a4.434,4.434,0,0,1,.5-2.227,3.816,3.816,0,0,1,1.293-1.509,3.374,3.374,0,0,1,1.868-.575,3.06,3.06,0,0,1,2.514,1.078,4.8,4.8,0,0,1,.934,3.089v.575h-5.675a3.114,3.114,0,0,0,.718,2.011,2.3,2.3,0,0,0,1.724.79,2.46,2.46,0,0,0,1.293-.287,4.944,4.944,0,0,0,.934-.79l.862.647A3.615,3.615,0,0,1,191.807,26.464Zm-.216-7.471a1.809,1.809,0,0,0-1.437.647,3.169,3.169,0,0,0-.718,1.8H193.6v-.144a2.666,2.666,0,0,0-.575-1.652A1.713,1.713,0,0,0,191.592,18.993Z" transform="translate(-188 -14.97)" fill="#285992"></path><path id="Path_251" data-name="Path 251" d="M204.095,19.237c-.216,0-.431-.072-.718-.072a1.978,1.978,0,0,0-1.94,1.221v5.963H200V18.016h1.365v.934a2.381,2.381,0,0,1,2.011-1.149c.287,0,.5,0,.647.144v1.293Z" transform="translate(-191.379 -14.998)" fill="#285992"></path><path id="Path_252" data-name="Path 252" d="M212.3,24.094a1.158,1.158,0,0,0-.431-.934,3.862,3.862,0,0,0-1.509-.575,6.879,6.879,0,0,1-1.724-.575,2.6,2.6,0,0,1-.934-.79,1.731,1.731,0,0,1-.287-1.078,2.048,2.048,0,0,1,.862-1.724A3.589,3.589,0,0,1,210.5,17.7a3.392,3.392,0,0,1,2.3.718,2.419,2.419,0,0,1,.862,1.868h-1.437a1.254,1.254,0,0,0-.5-1.006,1.813,1.813,0,0,0-1.221-.431,2.055,2.055,0,0,0-1.221.359,1.024,1.024,0,0,0-.431.862.9.9,0,0,0,.431.79,4.027,4.027,0,0,0,1.509.5,6.88,6.88,0,0,1,1.724.575,2.9,2.9,0,0,1,1.006.79,1.958,1.958,0,0,1,.287,1.149,2.179,2.179,0,0,1-.862,1.8,3.789,3.789,0,0,1-2.3.647,4.706,4.706,0,0,1-1.8-.359,2.807,2.807,0,0,1-1.221-1.006,2.365,2.365,0,0,1-.431-1.365h1.437a1.4,1.4,0,0,0,.575,1.149,2.28,2.28,0,0,0,1.437.431,2.133,2.133,0,0,0,1.293-.359A.717.717,0,0,0,212.3,24.094Z" transform="translate(-193.407 -14.97)" fill="#285992"></path><path id="Path_253" data-name="Path 253" d="M218.9,14.69a.816.816,0,0,1,.216-.575,1.078,1.078,0,0,1,1.293,0,.874.874,0,0,1,0,1.149,1.078,1.078,0,0,1-1.293,0A.816.816,0,0,1,218.9,14.69Zm1.58,10.56h-1.437V16.917h1.437Z" transform="translate(-196.702 -13.9)" fill="#285992"></path><path id="Path_254" data-name="Path 254" d="M225.745,15.172v2.011h1.58v1.078h-1.58v5.172a.791.791,0,0,0,.934.934,2.474,2.474,0,0,0,.647-.072v1.149a5.545,5.545,0,0,1-1.078.144,1.782,1.782,0,0,1-1.437-.575,2.66,2.66,0,0,1-.5-1.652V18.189H222.8V17.111h1.509V15.1h1.437Z" transform="translate(-197.8 -14.238)" fill="#285992"></path><path id="Path_255" data-name="Path 255" d="M233.764,24.35l1.94-6.25h1.509l-3.376,9.626a2.677,2.677,0,0,1-2.443,2.083h-.287l-.5-.072V28.588h.359a1.823,1.823,0,0,0,1.149-.287,1.974,1.974,0,0,0,.647-1.078l.287-.862L230.1,18.1h1.58Z" transform="translate(-199.856 -15.083)" fill="#285992"></path></g><g id="Group_1463" data-name="Group 1463" transform="translate(58.693 29.023)"><path id="Path_256" data-name="Path 256" d="M87.95,46.722H83.209v4.957H81.7V40.4h6.968v1.221h-5.46V45.5H87.95Z" transform="translate(-81.7 -40.4)" fill="#285992"></path></g><g id="Group_1464" data-name="Group 1464" transform="translate(66.595 28.448)"><path id="Path_257" data-name="Path 257" d="M92.7,48.539a4.618,4.618,0,0,1,.5-2.227A3.475,3.475,0,0,1,94.568,44.8a3.558,3.558,0,0,1,1.94-.5,3.336,3.336,0,0,1,2.73,1.149,4.931,4.931,0,0,1,1.078,3.161v.072a5.249,5.249,0,0,1-.431,2.155,3.475,3.475,0,0,1-1.365,1.509,3.676,3.676,0,0,1-2.011.575,3.336,3.336,0,0,1-2.73-1.149A4.787,4.787,0,0,1,92.7,48.61v-.072Zm1.437.144a3.566,3.566,0,0,0,.647,2.227,2.155,2.155,0,0,0,3.448,0,3.871,3.871,0,0,0,.647-2.371,3.566,3.566,0,0,0-.647-2.227,2.155,2.155,0,0,0-3.448,0A3.73,3.73,0,0,0,94.137,48.682Z" transform="translate(-92.7 -40.924)" fill="#285992"></path><path id="Path_258" data-name="Path 258" d="M110.972,51.943a3.084,3.084,0,0,1-2.443,1.006,2.593,2.593,0,0,1-2.012-.79,3.511,3.511,0,0,1-.718-2.3V44.4h1.437v5.46c0,1.293.5,1.868,1.509,1.868a2.151,2.151,0,0,0,2.155-1.221V44.4h1.437v8.333h-1.365Z" transform="translate(-96.389 -40.952)" fill="#285992"></path><path id="Path_259" data-name="Path 259" d="M119.265,44.444l.072,1.078a3.065,3.065,0,0,1,2.514-1.221c1.8,0,2.658,1.006,2.658,3.017v5.532h-1.437V47.317a1.945,1.945,0,0,0-.431-1.365,1.756,1.756,0,0,0-1.293-.431,2.422,2.422,0,0,0-1.221.359,1.858,1.858,0,0,0-.79,1.006v5.963H117.9V44.444Z" transform="translate(-99.797 -40.924)" fill="#285992"></path><path id="Path_260" data-name="Path 260" d="M129.6,47.215a4.665,4.665,0,0,1,.934-3.089,2.829,2.829,0,0,1,2.371-1.149,2.882,2.882,0,0,1,2.3,1.006V39.6h1.437V51.453h-1.293l-.072-.862a2.87,2.87,0,0,1-2.371,1.078,3,3,0,0,1-2.371-1.221,4.665,4.665,0,0,1-.934-3.089Zm1.437.144a4.085,4.085,0,0,0,.575,2.227,1.948,1.948,0,0,0,1.652.79,2.147,2.147,0,0,0,2.012-1.221V45.347a2.172,2.172,0,0,0-3.592-.359A3.233,3.233,0,0,0,131.037,47.359Z" transform="translate(-103.091 -39.6)" fill="#285992"></path><path id="Path_261" data-name="Path 261" d="M147.588,52.721a3.582,3.582,0,0,1-.216-.862A3,3,0,0,1,145,52.864a2.771,2.771,0,0,1-2.012-.718,2.478,2.478,0,0,1,.216-3.807,4.493,4.493,0,0,1,2.8-.718h1.365v-.647a1.813,1.813,0,0,0-.431-1.221,1.756,1.756,0,0,0-1.293-.431,2.481,2.481,0,0,0-1.293.359,1.131,1.131,0,0,0-.5.934h-1.437a2.108,2.108,0,0,1,.431-1.221,3.256,3.256,0,0,1,1.221-.934,4.262,4.262,0,0,1,1.652-.359,3.084,3.084,0,0,1,2.227.718,2.507,2.507,0,0,1,.862,2.012v3.807a4.072,4.072,0,0,0,.287,1.8v.144h-1.509Zm-2.371-1.078a2.927,2.927,0,0,0,1.293-.359,1.573,1.573,0,0,0,.862-.934V48.626h-1.149c-1.724,0-2.658.5-2.658,1.509A1.462,1.462,0,0,0,144,51.212,1.813,1.813,0,0,0,145.217,51.643Z" transform="translate(-106.64 -40.867)" fill="#285992"></path><path id="Path_262" data-name="Path 262" d="M155.945,41.6v2.011h1.58v1.149h-1.58v5.172a.791.791,0,0,0,.934.934,2.475,2.475,0,0,0,.647-.072v1.149a5.545,5.545,0,0,1-1.078.144,1.783,1.783,0,0,1-1.437-.575,2.66,2.66,0,0,1-.5-1.652v-5.1H153V43.683h1.509V41.672h1.437Z" transform="translate(-109.681 -40.163)" fill="#285992"></path><path id="Path_263" data-name="Path 263" d="M161.6,41.09a.816.816,0,0,1,.216-.575,1.078,1.078,0,0,1,1.293,0,.874.874,0,0,1,0,1.149,1.078,1.078,0,0,1-1.293,0A.816.816,0,0,1,161.6,41.09Zm1.58,10.56h-1.437V43.317h1.437Z" transform="translate(-112.103 -39.797)" fill="#285992"></path><path id="Path_264" data-name="Path 264" d="M166.372,48.539a4.618,4.618,0,0,1,.5-2.227A3.977,3.977,0,0,1,168.24,44.8a3.558,3.558,0,0,1,1.94-.5,3.336,3.336,0,0,1,2.73,1.149,4.56,4.56,0,0,1,1.078,3.161v.072a4.339,4.339,0,0,1-.5,2.155,3.475,3.475,0,0,1-1.365,1.509,3.676,3.676,0,0,1-2.011.575,3.336,3.336,0,0,1-2.73-1.149A4.438,4.438,0,0,1,166.3,48.61v-.072Zm1.437.144a3.566,3.566,0,0,0,.647,2.227,2.155,2.155,0,0,0,3.448,0,3.871,3.871,0,0,0,.647-2.371,3.566,3.566,0,0,0-.647-2.227,2.155,2.155,0,0,0-3.448,0A3.73,3.73,0,0,0,167.809,48.682Z" transform="translate(-113.426 -40.924)" fill="#285992"></path><path id="Path_265" data-name="Path 265" d="M180.865,44.444l.072,1.078a3.065,3.065,0,0,1,2.514-1.221c1.8,0,2.658,1.006,2.658,3.017v5.532h-1.437V47.317a1.945,1.945,0,0,0-.431-1.365,1.756,1.756,0,0,0-1.293-.431,2.422,2.422,0,0,0-1.221.359,1.858,1.858,0,0,0-.79,1.006v5.963H179.5V44.444Z" transform="translate(-117.144 -40.924)" fill="#285992"></path><path id="Path_266" data-name="Path 266" d="M205.246,40.4v7.615A3.518,3.518,0,0,1,204.24,50.6a4.126,4.126,0,0,1-2.658,1.149h-.359a4.3,4.3,0,0,1-2.945-1.006,3.518,3.518,0,0,1-1.078-2.73V40.4h1.437v7.615a2.567,2.567,0,0,0,.647,1.868,3.233,3.233,0,0,0,3.879,0,2.567,2.567,0,0,0,.647-1.868V40.4Z" transform="translate(-122.128 -39.825)" fill="#285992"></path><path id="Path_267" data-name="Path 267" d="M211.4,54.662a1.159,1.159,0,0,1,.215-.647.865.865,0,0,1,1.509.647.816.816,0,0,1-.215.575,1.078,1.078,0,0,1-1.293,0A.707.707,0,0,1,211.4,54.662Z" transform="translate(-126.127 -43.599)" fill="#285992"></path><path id="Path_268" data-name="Path 268" d="M220.495,46.594a6.355,6.355,0,0,1-2.8-1.365,2.566,2.566,0,0,1-.862-1.94,2.788,2.788,0,0,1,1.078-2.227,4.279,4.279,0,0,1,2.73-.862,4.913,4.913,0,0,1,2.083.431,3.959,3.959,0,0,1,1.437,1.221,2.864,2.864,0,0,1,.5,1.724h-1.509a2.006,2.006,0,0,0-.647-1.58,2.828,2.828,0,0,0-1.8-.575,2.6,2.6,0,0,0-1.724.5,1.578,1.578,0,0,0-.647,1.365,1.5,1.5,0,0,0,.575,1.149,6.866,6.866,0,0,0,2.012.862,14.524,14.524,0,0,1,2.227.862A3.351,3.351,0,0,1,224.3,47.24a2.618,2.618,0,0,1,.359,1.509,2.473,2.473,0,0,1-1.078,2.155,4.407,4.407,0,0,1-2.874.79,5.249,5.249,0,0,1-2.155-.431,4.455,4.455,0,0,1-1.58-1.221,2.923,2.923,0,0,1-.575-1.724h1.509a1.849,1.849,0,0,0,.718,1.58,3.344,3.344,0,0,0,2.012.575,2.677,2.677,0,0,0,1.8-.5,1.536,1.536,0,0,0,.646-1.293,1.578,1.578,0,0,0-.575-1.293A7.53,7.53,0,0,0,220.495,46.594Z" transform="translate(-127.535 -39.769)" fill="#285992"></path><path id="Path_269" data-name="Path 269" d="M230.2,54.662a1.159,1.159,0,0,1,.216-.647.865.865,0,0,1,1.509.647.816.816,0,0,1-.216.575,1.078,1.078,0,0,1-1.293,0A1.071,1.071,0,0,1,230.2,54.662Z" transform="translate(-131.421 -43.599)" fill="#285992"></path><path id="Path_270" data-name="Path 270" d="M243.409,51.679H241.9V40.4h1.509Z" transform="translate(-134.716 -39.825)" fill="#285992"></path><path id="Path_271" data-name="Path 271" d="M248.765,44.444l.072,1.078a3.065,3.065,0,0,1,2.514-1.221c1.8,0,2.658,1.006,2.658,3.017v5.532h-1.437V47.317a1.945,1.945,0,0,0-.431-1.365,1.756,1.756,0,0,0-1.293-.431,2.422,2.422,0,0,0-1.221.359,1.858,1.858,0,0,0-.79,1.006v5.963H247.4V44.444Z" transform="translate(-136.265 -40.924)" fill="#285992"></path><path id="Path_272" data-name="Path 272" d="M262.764,51.743a2.365,2.365,0,0,0,1.365-.431,1.582,1.582,0,0,0,.646-1.149h1.365a2.45,2.45,0,0,1-.5,1.365,2.806,2.806,0,0,1-1.221,1.006,3.175,3.175,0,0,1-1.581.359,3.432,3.432,0,0,1-2.73-1.149,4.693,4.693,0,0,1-1.006-3.089v-.287a5.25,5.25,0,0,1,.431-2.155,3.324,3.324,0,0,1,1.293-1.509,3.644,3.644,0,0,1,2.011-.5,3.145,3.145,0,0,1,2.3.862,3.374,3.374,0,0,1,1.006,2.155h-1.365a1.9,1.9,0,0,0-.646-1.365,1.789,1.789,0,0,0-1.365-.5,1.948,1.948,0,0,0-1.652.79,3.519,3.519,0,0,0-.575,2.3v.287a3.915,3.915,0,0,0,.575,2.227A1.948,1.948,0,0,0,262.764,51.743Z" transform="translate(-139.56 -40.895)" fill="#285992"></path><path id="Path_273" data-name="Path 273" d="M271.1,54.662a1.158,1.158,0,0,1,.216-.647.865.865,0,0,1,1.509.647.816.816,0,0,1-.216.575,1.077,1.077,0,0,1-1.293,0A.707.707,0,0,1,271.1,54.662Z" transform="translate(-142.939 -43.599)" fill="#285992"></path></g></g></svg>